<?xml version="1.0" encoding="utf-8"?>
<!-- Generator: Adobe Illustrator 16.0.0, SVG Export Plug-In . SVG Version: 6.00 Build 0)  -->
<!DOCTYPE svg PUBLIC "-//W3C//DTD SVG 1.1//EN" "http://www.w3.org/Graphics/SVG/1.1/DTD/svg11.dtd">
<svg version="1.1" id="Layer_1" xmlns="http://www.w3.org/2000/svg" xmlns:xlink="http://www.w3.org/1999/xlink" x="0px" y="0px"
	 width="153.624px" height="249.166px" viewBox="0 0 153.624 249.166" enable-background="new 0 0 153.624 249.166"
	 xml:space="preserve">
<g>
	<path fill="#F5F6F6" d="M62.076,220.366l-7.896-12.024v12.024h-2.592v-17.089h2.376l7.896,12v-12h2.593v17.089H62.076z"/>
	<path fill="#F5F6F6" d="M80.772,218.782c-1.104,1.104-2.544,1.728-4.416,1.728s-3.312-0.623-4.417-1.728
		c-1.68-1.681-1.728-3.384-1.728-6.961c0-3.576,0.048-5.28,1.728-6.96c1.104-1.104,2.545-1.729,4.417-1.729s3.312,0.624,4.416,1.729
		c1.681,1.68,1.729,3.384,1.729,6.96C82.501,215.398,82.453,217.101,80.772,218.782z M78.9,206.493
		c-0.648-0.673-1.512-1.056-2.544-1.056s-1.896,0.383-2.545,1.056c-0.84,0.912-1.008,1.944-1.008,5.328s0.168,4.393,1.008,5.305
		c0.648,0.672,1.513,1.08,2.545,1.08s1.896-0.408,2.544-1.08c0.864-0.888,1.008-1.921,1.008-5.305S79.765,207.38,78.9,206.493z"/>
	<path fill="#F5F6F6" d="M98.749,220.366l-7.896-12.024v12.024H88.26v-17.089h2.375l7.896,12v-12h2.594v17.089H98.749z"/>
	<path fill="#F5F6F6" d="M9.433,249.166l-3.601-7.201h-3.24v7.201H0v-17.09h6.624c3.24,0,5.305,2.088,5.305,4.992
		c0,2.449-1.488,4.009-3.408,4.537l3.937,7.561H9.433z M6.433,234.404H2.592v5.354h3.841c1.728,0,2.904-0.984,2.904-2.665
		S8.16,234.404,6.433,234.404z"/>
	<path fill="#F5F6F6" d="M17.64,249.166v-17.09h10.921v2.328h-8.329v4.992h7.104v2.305h-7.104v5.137h8.329v2.328H17.64z"/>
	<path fill="#F5F6F6" d="M44.521,249.166l-7.896-12.025v12.025h-2.592v-17.09h2.376l7.896,12.002v-12.002h2.593v17.09H44.521z"/>
	<path fill="#F5F6F6" d="M53.279,249.166v-17.09H64.2v2.328h-8.329v4.992h7.104v2.305h-7.104v5.137H64.2v2.328H53.279z"/>
	<path fill="#F5F6F6" d="M83.618,249.166H81.36l-3.48-11.977l-3.456,11.977h-2.256l-4.465-17.09h2.736l2.977,12.217l3.433-12.217
		h2.088l3.433,12.217l2.975-12.217h2.736L83.618,249.166z"/>
	<path fill="#F5F6F6" d="M102.071,249.166l-1.176-3.432h-6.744l-1.176,3.432h-2.76l6.264-17.09h2.088l6.266,17.09H102.071z
		 M97.583,235.941l-2.664,7.584h5.258L97.583,235.941z"/>
	<path fill="#F5F6F6" d="M116.086,249.166h-6.912v-17.09h6.648c3.168,0,5.16,1.801,5.16,4.681c0,1.849-1.152,3.169-2.303,3.624
		c1.32,0.528,2.568,1.801,2.568,3.961C121.249,247.486,119.112,249.166,116.086,249.166z M115.608,234.404h-3.842v4.896h3.842
		c1.656,0,2.783-0.863,2.783-2.447S117.264,234.404,115.608,234.404z M115.846,241.628h-4.08v5.209h4.08
		c1.801,0,2.809-1.104,2.809-2.616S117.647,241.628,115.846,241.628z"/>
	<path fill="#F5F6F6" d="M127.006,249.166v-17.09h2.592v14.762h8.234v2.328H127.006z"/>
	<path fill="#F5F6F6" d="M142.704,249.166v-17.09h10.92v2.328h-8.328v4.992h7.104v2.305h-7.104v5.137h8.328v2.328H142.704z"/>
</g>
<g>
	<path fill="#F5F6F6" d="M137.842,17.885c0.01,13.382-27.094,17.869-60.531,17.869c-33.426,0-60.151-5.889-60.52-17.869
		C16.426,5.901,43.891,0,77.31,0C110.749,0,137.833,4.502,137.842,17.885z"/>
	<path fill="#F5F6F6" d="M77.323,43.957c-31.677,0-57.357-7.585-57.357-16.947v34.097v19.78c0,9.356,25.682,16.937,57.357,16.937
		c31.675,0,57.354-7.58,57.354-16.937v-19.78V27.01C134.676,36.372,108.999,43.957,77.323,43.957z"/>
	<path fill="#F5F6F6" d="M77.323,104.505c-31.677,0-57.357-7.582-57.357-16.947v34.102v19.775c0,9.352,25.682,16.945,57.357,16.945
		c31.675,0,57.354-7.592,57.354-16.945V121.66V87.558C134.676,96.923,108.999,104.505,77.323,104.505z"/>
	<path fill="#F5F6F6" d="M132.168,153.441c-7.17,6.945-29.012,12.002-54.857,12.002c-25.845,0-47.684-5.059-54.854-12.002
		c-1.617,1.566-2.502,3.227-2.502,4.943c0,9.354,25.682,16.945,57.354,16.945c31.681,0,57.355-7.586,57.355-16.945
		C134.667,156.667,133.786,155.007,132.168,153.441z"/>
</g>
</svg>
