<?xml version="1.0" encoding="utf-8"?>
<!-- Generator: Adobe Illustrator 16.0.0, SVG Export Plug-In . SVG Version: 6.00 Build 0)  -->
<!DOCTYPE svg PUBLIC "-//W3C//DTD SVG 1.1//EN" "http://www.w3.org/Graphics/SVG/1.1/DTD/svg11.dtd">
<svg version="1.1" id="Layer_1" xmlns="http://www.w3.org/2000/svg" xmlns:xlink="http://www.w3.org/1999/xlink" x="0px" y="0px"
	 width="274px" height="259px" viewBox="-20.5 0 274 259" enable-background="new -20.5 0 274 259" xml:space="preserve">
<g>
	<g>
		<path fill="#F5F6F6" d="M85.936,96.569l6.682,4.086c1.125,0,1.693-0.466,1.693-1.397c0-0.596-0.271-1.421-0.797-2.492
			L78.752,69.042L46.037,69.84c-1.463,0.071-2.191,0.835-2.191,2.297c0,0.329,0.465,0.796,1.393,1.396l6.785,4.087l-7.182,11.165
			c-1.992,3.201-2.99,5.831-2.99,7.888c0,1.864,0.66,3.958,1.994,6.282l22.238,38.792c-0.529-2.457-0.795-4.787-0.795-6.981
			c0-3.918,1.227-7.779,3.688-11.567L85.936,96.569L85.936,96.569z"/>
	</g>
	<g>
		<path fill="#F5F6F6" d="M94.51,73.931l18.35-28.42c-6.852-15.624-14.131-23.443-21.844-23.443c-4.654,0-7.773,1.299-9.369,3.892
			L64.289,53.686L94.51,73.931L94.51,73.931z"/>
	</g>
	<g>
		<path fill="#F5F6F6" d="M79.549,150.919h35.406v-36.794H80.846c-4.186,5.98-6.816,10.042-7.877,12.164
			c-1.73,3.391-2.592,6.85-2.592,10.371C70.377,146.167,73.432,150.919,79.549,150.919L79.549,150.919z"/>
	</g>
	<g>
		<path fill="#F5F6F6" d="M152.455,67.149l15.756-26.53c0.527-0.928,0.795-1.896,0.795-2.891c0-1.198-0.396-1.792-1.189-1.792
			c0.125,0-0.4,0.197-1.6,0.594l-7.178,3.291l-6.584-13.066c-2.932-5.848-8.775-8.774-17.555-8.774H93.916
			c4.984,1.528,8.371,3.025,10.168,4.486c4.191,3.329,8.479,9.576,12.863,18.752l8.184,17.153l-6.09,2.893
			c-0.596,0.272-0.896,0.797-0.896,1.595c0,0.997,0.631,1.567,1.896,1.696L152.455,67.149L152.455,67.149z"/>
	</g>
	<g>
		<path fill="#F5F6F6" d="M168.209,145.438l22.939-41.687c-3.395,3.86-7.082,6.452-11.066,7.779
			c-3.189,1.065-7.756,1.596-13.67,1.596h-25.529v-5.288c0-2.06-0.5-3.092-1.5-3.092c-0.729,0-1.266,0.272-1.596,0.8l-16.146,28.022
			l16.752,25.729c1.266,1.934,2.355,2.691,3.293,2.295c0.928-0.266,1.395-0.764,1.395-1.492v-8.777h14.16
			C162.424,151.324,166.082,149.359,168.209,145.438L168.209,145.438z"/>
	</g>
	<g>
		<path fill="#F5F6F6" d="M158.236,107.839h15.262c3.652,0,7.441-1.595,11.369-4.784c4.188-3.325,6.281-6.851,6.281-10.577
			c0-1.722-0.566-3.417-1.695-5.082l-18.148-27.728l-31.223,18.156L158.236,107.839L158.236,107.839z"/>
	</g>
	<g>
		<path fill="#F5F6F6" d="M70.689,221.416c-2.253,0-3.984-0.75-5.315-2.081c-1.992-2.022-2.076-4.072-2.076-8.375
			c0-4.298,0.083-6.348,2.076-8.371c1.33-1.328,3.062-2.079,5.315-2.079c3.779,0,6.609,2.253,7.331,6.325h-3.177
			c-0.46-2.107-1.877-3.553-4.154-3.553c-1.243,0-2.281,0.463-3.032,1.273c-1.04,1.095-1.24,2.335-1.24,6.405
			c0,4.074,0.201,5.313,1.24,6.41c0.751,0.808,1.789,1.272,3.032,1.272c2.28,0,3.723-1.445,4.214-3.552h3.117
			C77.299,219.164,74.439,221.416,70.689,221.416z"/>
		<path fill="#F5F6F6" d="M84.486,221.241v-20.557h3.118v17.756h9.903v2.801H84.486z"/>
		<path fill="#F5F6F6" d="M103.363,221.241v-20.557H116.5v2.802h-10.019v6.004h8.544v2.771h-8.544v6.18H116.5v2.801H103.363z"/>
		<path fill="#F5F6F6" d="M134.885,221.241l-1.414-4.129h-8.113l-1.414,4.129h-3.322l7.539-20.557h2.512l7.535,20.557H134.885z
			 M129.486,205.334l-3.203,9.127h6.324L129.486,205.334z"/>
		<path fill="#F5F6F6" d="M156.047,221.241l-9.498-14.464v14.464h-3.117v-20.557h2.857l9.494,14.436v-14.436h3.123v20.557H156.047z"
			/>
		<path fill="#F5F6F6" d="M54.031,254.88v-20.553h13.137v2.799h-10.02v6.005h8.545v2.771h-8.545v6.179h10.02v2.8H54.031z"/>
		<path fill="#F5F6F6" d="M86.362,254.88l-9.497-14.46v14.46h-3.118v-20.553h2.856l9.497,14.433v-14.433h3.12v20.553H86.362z"/>
		<path fill="#F5F6F6" d="M96.898,254.88v-20.553h13.135v2.799h-10.017v6.005h8.544v2.771h-8.544v6.179h10.017v2.8H96.898z"/>
		<path fill="#F5F6F6" d="M127.957,254.88l-4.334-8.659h-3.895v8.659h-3.117v-20.553h7.969c3.896,0,6.381,2.511,6.381,6.003
			c0,2.943-1.789,4.822-4.1,5.455l4.738,9.095H127.957z M124.35,237.126h-4.621v6.438h4.621c2.08,0,3.49-1.18,3.49-3.2
			C127.846,238.34,126.43,237.126,124.35,237.126z"/>
		<path fill="#F5F6F6" d="M150.129,252.716c-1.529,1.616-3.492,2.337-5.656,2.337c-2.254,0-3.984-0.749-5.314-2.081
			c-1.99-2.02-2.078-4.07-2.078-8.371c0-4.302,0.082-6.351,2.078-8.371c1.328-1.326,3.061-2.079,5.314-2.079
			c4.332,0,6.896,2.856,7.445,6.348h-3.119c-0.52-2.251-2.021-3.579-4.33-3.579c-1.244,0-2.281,0.461-3.062,1.271
			c-1.01,1.097-1.213,2.336-1.213,6.407s0.203,5.314,1.213,6.409c0.781,0.812,1.818,1.271,3.062,1.271
			c1.354,0,2.566-0.521,3.377-1.472c0.752-0.868,1.014-1.905,1.014-3.233v-1.153h-4.387v-2.656h7.504v3.147
			C151.979,249.596,151.486,251.246,150.129,252.716z"/>
		<path fill="#F5F6F6" d="M165.312,246.423v8.457h-3.121v-8.457l-6.145-12.096h3.406l4.299,9.035l4.301-9.035h3.408L165.312,246.423
			z"/>
	</g>
</g>
</svg>
