<?xml version="1.0" encoding="utf-8"?>
<!-- Generator: Adobe Illustrator 16.0.0, SVG Export Plug-In . SVG Version: 6.00 Build 0)  -->
<!DOCTYPE svg PUBLIC "-//W3C//DTD SVG 1.1//EN" "http://www.w3.org/Graphics/SVG/1.1/DTD/svg11.dtd">
<svg version="1.1" id="Layer_1" xmlns="http://www.w3.org/2000/svg" xmlns:xlink="http://www.w3.org/1999/xlink" x="0px" y="0px"
	 width="274px" height="259px" viewBox="0 0 274 259" enable-background="new 0 0 274 259" xml:space="preserve">
<g>
	<g>
		<path fill="#F5F6F6" d="M197.064,20.162c0.01,13.382-27.094,17.869-60.531,17.869c-33.428,0-60.151-5.889-60.521-17.869
			c-0.365-11.984,27.1-17.885,60.52-17.885C169.971,2.275,197.055,6.778,197.064,20.162z"/>
		<path fill="#F5F6F6" d="M136.543,46.232c-31.676,0-57.355-7.585-57.355-16.947v34.097v19.78c0,9.356,25.682,16.937,57.355,16.937
			c31.675,0,57.353-7.58,57.353-16.937v-19.78V29.287C193.898,38.647,168.221,46.232,136.543,46.232z"/>
		<path fill="#F5F6F6" d="M136.543,106.781c-31.676,0-57.355-7.582-57.355-16.947v34.102v19.776
			c0,9.353,25.682,16.943,57.355,16.943c31.675,0,57.353-7.593,57.353-16.943v-19.776V89.833
			C193.898,99.199,168.221,106.781,136.543,106.781z"/>
		<path fill="#F5F6F6" d="M191.391,155.718c-7.17,6.945-29.012,12-54.853,12c-25.847,0-47.685-5.061-54.854-12
			c-1.617,1.564-2.502,3.226-2.502,4.943c0,9.354,25.682,16.942,57.354,16.942c31.683,0,57.353-7.586,57.353-16.944
			C193.889,158.941,193.008,157.282,191.391,155.718z"/>
	</g>
</g>
<g>
	<path fill="#F5F6F6" d="M96.615,203.446v6.076h8.288v2.716h-8.288v8.428h-3.024V200.73h12.74v2.716H96.615z"/>
	<path fill="#F5F6F6" d="M121.003,218.818c-1.288,1.288-2.968,2.016-5.152,2.016s-3.864-0.728-5.152-2.016
		c-1.96-1.96-2.016-3.948-2.016-8.12s0.056-6.16,2.016-8.12c1.288-1.288,2.968-2.016,5.152-2.016s3.864,0.728,5.152,2.016
		c1.96,1.96,2.016,3.948,2.016,8.12S122.963,216.858,121.003,218.818z M118.819,204.482c-0.756-0.784-1.764-1.232-2.968-1.232
		s-2.212,0.448-2.968,1.232c-0.98,1.063-1.176,2.268-1.176,6.216s0.196,5.124,1.176,6.188c0.756,0.784,1.764,1.261,2.968,1.261
		s2.212-0.477,2.968-1.261c1.008-1.036,1.176-2.239,1.176-6.188S119.828,205.519,118.819,204.482z"/>
	<path fill="#F5F6F6" d="M132.792,220.834c-2.996,0-5.124-0.7-7.056-2.632l1.988-1.988c1.456,1.456,3.108,1.933,5.124,1.933
		c2.632,0,4.116-1.12,4.116-3.08c0-0.896-0.224-1.597-0.784-2.072c-0.504-0.448-1.176-0.7-2.184-0.84l-2.352-0.336
		c-1.624-0.252-2.884-0.756-3.752-1.597c-0.98-0.896-1.484-2.184-1.484-3.836c0-3.472,2.52-5.823,6.664-5.823
		c2.66,0,4.479,0.672,6.188,2.268l-1.904,1.904c-1.232-1.177-2.688-1.54-4.396-1.54c-2.352,0-3.612,1.288-3.612,3.107
		c0,0.729,0.196,1.4,0.728,1.849c0.504,0.447,1.092,0.728,2.184,0.896l2.38,0.364c1.82,0.28,2.828,0.7,3.696,1.484
		c1.063,0.979,1.623,2.352,1.623,4.088C139.959,218.65,136.991,220.834,132.792,220.834z"/>
	<path fill="#F5F6F6" d="M149.172,220.834c-2.996,0-5.125-0.7-7.057-2.632l1.988-1.988c1.456,1.456,3.107,1.933,5.124,1.933
		c2.632,0,4.116-1.12,4.116-3.08c0-0.896-0.225-1.597-0.784-2.072c-0.505-0.448-1.177-0.7-2.185-0.84l-2.352-0.336
		c-1.624-0.252-2.885-0.756-3.752-1.597c-0.98-0.896-1.484-2.184-1.484-3.836c0-3.472,2.521-5.823,6.664-5.823
		c2.66,0,4.48,0.672,6.188,2.268l-1.903,1.904c-1.231-1.177-2.688-1.54-4.396-1.54c-2.353,0-3.612,1.288-3.612,3.107
		c0,0.729,0.196,1.4,0.728,1.849c0.504,0.447,1.092,0.728,2.184,0.896l2.381,0.364c1.82,0.28,2.828,0.7,3.695,1.484
		c1.064,0.979,1.625,2.352,1.625,4.088C156.34,218.65,153.371,220.834,149.172,220.834z"/>
	<path fill="#F5F6F6" d="M160.399,220.666V200.73h3.024v19.936H160.399z"/>
	<path fill="#F5F6F6" d="M168.631,220.666V200.73h3.024v17.22h9.604v2.716H168.631z"/>
	<path fill="#F5F6F6" d="M99.793,237.046v6.076h8.288v2.716h-8.288v8.428H96.77V234.33h12.74v2.716H99.793z"/>
	<path fill="#F5F6F6" d="M119.981,254.434c-4.06,0-7.14-2.771-7.14-6.888V234.33h3.024v13.075c0,2.66,1.624,4.312,4.116,4.312
		c2.492,0,4.144-1.652,4.144-4.312V234.33h3.024v13.216C127.149,251.662,124.042,254.434,119.981,254.434z"/>
	<path fill="#F5F6F6" d="M132.049,254.266V234.33h12.74v2.716h-9.716v5.824h8.289v2.688h-8.289v5.992h9.716v2.716H132.049z"/>
	<path fill="#F5F6F6" d="M148.934,254.266V234.33h3.023v17.22h9.604v2.716H148.934z"/>
	<path fill="#F5F6F6" d="M170.297,254.434c-2.996,0-5.125-0.7-7.057-2.632l1.988-1.988c1.456,1.456,3.107,1.933,5.124,1.933
		c2.632,0,4.116-1.12,4.116-3.08c0-0.896-0.225-1.597-0.784-2.072c-0.505-0.448-1.177-0.7-2.185-0.84l-2.352-0.336
		c-1.624-0.252-2.885-0.756-3.752-1.597c-0.98-0.896-1.484-2.184-1.484-3.836c0-3.472,2.521-5.823,6.664-5.823
		c2.66,0,4.48,0.672,6.188,2.268l-1.903,1.904c-1.231-1.177-2.688-1.54-4.396-1.54c-2.353,0-3.612,1.288-3.612,3.107
		c0,0.729,0.196,1.4,0.728,1.849c0.504,0.447,1.092,0.728,2.184,0.896l2.381,0.364c1.82,0.28,2.828,0.7,3.695,1.484
		c1.064,0.979,1.625,2.352,1.625,4.088C177.465,252.25,174.496,254.434,170.297,254.434z"/>
</g>
</svg>
