<?xml version="1.0" encoding="utf-8"?>
<!-- Generator: Adobe Illustrator 16.0.0, SVG Export Plug-In . SVG Version: 6.00 Build 0)  -->
<!DOCTYPE svg PUBLIC "-//W3C//DTD SVG 1.1//EN" "http://www.w3.org/Graphics/SVG/1.1/DTD/svg11.dtd">
<svg version="1.1" id="Layer_1" xmlns="http://www.w3.org/2000/svg" xmlns:xlink="http://www.w3.org/1999/xlink" x="0px" y="0px"
	 width="153.624px" height="249.166px" viewBox="0 0 153.624 249.166" enable-background="new 0 0 153.624 249.166"
	 xml:space="preserve">
<g>
	<path fill="#F5F6F6" d="M-216.218,220.366l-7.896-12.024v12.024h-2.592v-17.089h2.376l7.896,12v-12h2.593v17.089H-216.218z"/>
	<path fill="#F5F6F6" d="M-197.522,218.782c-1.104,1.104-2.544,1.728-4.416,1.728s-3.312-0.623-4.417-1.728
		c-1.68-1.681-1.728-3.384-1.728-6.961c0-3.576,0.048-5.28,1.728-6.96c1.104-1.104,2.545-1.729,4.417-1.729s3.312,0.624,4.416,1.729
		c1.681,1.68,1.729,3.384,1.729,6.96C-195.793,215.398-195.841,217.101-197.522,218.782z M-199.394,206.493
		c-0.648-0.673-1.512-1.056-2.544-1.056s-1.896,0.383-2.545,1.056c-0.84,0.912-1.008,1.944-1.008,5.328s0.168,4.393,1.008,5.305
		c0.648,0.672,1.513,1.08,2.545,1.08s1.896-0.408,2.544-1.08c0.864-0.888,1.008-1.921,1.008-5.305S-198.53,207.38-199.394,206.493z"
		/>
	<path fill="#F5F6F6" d="M-179.546,220.366l-7.896-12.024v12.024h-2.592v-17.089h2.375l7.896,12v-12h2.594v17.089H-179.546z"/>
	<path fill="#F5F6F6" d="M-268.862,249.166l-3.601-7.201h-3.24v7.201h-2.592v-17.09h6.624c3.24,0,5.305,2.088,5.305,4.992
		c0,2.449-1.488,4.009-3.408,4.537l3.937,7.561H-268.862z M-271.862,234.404h-3.841v5.354h3.841c1.728,0,2.904-0.984,2.904-2.665
		S-270.134,234.404-271.862,234.404z"/>
	<path fill="#F5F6F6" d="M-260.655,249.166v-17.09h10.921v2.328h-8.329v4.992h7.104v2.305h-7.104v5.137h8.329v2.328H-260.655z"/>
	<path fill="#F5F6F6" d="M-233.774,249.166l-7.896-12.025v12.025h-2.592v-17.09h2.376l7.896,12.002v-12.002h2.593v17.09H-233.774z"
		/>
	<path fill="#F5F6F6" d="M-225.015,249.166v-17.09h10.921v2.328h-8.329v4.992h7.104v2.305h-7.104v5.137h8.329v2.328H-225.015z"/>
	<path fill="#F5F6F6" d="M-194.677,249.166h-2.257l-3.48-11.977l-3.456,11.977h-2.256l-4.465-17.09h2.736l2.977,12.217l3.433-12.217
		h2.088l3.433,12.217l2.975-12.217h2.736L-194.677,249.166z"/>
	<path fill="#F5F6F6" d="M-176.224,249.166l-1.176-3.432h-6.744l-1.176,3.432h-2.76l6.264-17.09h2.088l6.266,17.09H-176.224z
		 M-180.712,235.941l-2.664,7.584h5.258L-180.712,235.941z"/>
	<path fill="#F5F6F6" d="M-162.208,249.166h-6.912v-17.09h6.648c3.168,0,5.16,1.801,5.16,4.681c0,1.849-1.152,3.169-2.303,3.624
		c1.32,0.528,2.568,1.801,2.568,3.961C-157.046,247.486-159.183,249.166-162.208,249.166z M-162.687,234.404h-3.842v4.896h3.842
		c1.656,0,2.783-0.863,2.783-2.447S-161.03,234.404-162.687,234.404z M-162.448,241.628h-4.08v5.209h4.08
		c1.801,0,2.809-1.104,2.809-2.616S-160.647,241.628-162.448,241.628z"/>
	<path fill="#F5F6F6" d="M-151.288,249.166v-17.09h2.592v14.762h8.234v2.328H-151.288z"/>
	<path fill="#F5F6F6" d="M-135.591,249.166v-17.09h10.92v2.328h-8.328v4.992h7.104v2.305h-7.104v5.137h8.328v2.328H-135.591z"/>
</g>
<g>
	<path fill="#F5F6F6" d="M-140.452,17.885c0.01,13.382-27.094,17.869-60.531,17.869c-33.426,0-60.151-5.889-60.52-17.869
		C-261.868,5.901-234.403,0-200.984,0C-167.546,0-140.462,4.502-140.452,17.885z"/>
	<path fill="#F5F6F6" d="M-200.972,43.957c-31.677,0-57.357-7.585-57.357-16.947v34.097v19.78c0,9.356,25.682,16.937,57.357,16.937
		c31.675,0,57.354-7.58,57.354-16.937v-19.78V27.01C-143.618,36.372-169.296,43.957-200.972,43.957z"/>
	<path fill="#F5F6F6" d="M-200.972,104.505c-31.677,0-57.357-7.582-57.357-16.947v34.102v19.775
		c0,9.352,25.682,16.945,57.357,16.945c31.675,0,57.354-7.592,57.354-16.945V121.66V87.558
		C-143.618,96.923-169.296,104.505-200.972,104.505z"/>
	<path fill="#F5F6F6" d="M-146.126,153.441c-7.17,6.945-29.012,12.002-54.857,12.002c-25.845,0-47.684-5.059-54.854-12.002
		c-1.617,1.566-2.502,3.227-2.502,4.943c0,9.354,25.682,16.945,57.354,16.945c31.681,0,57.355-7.586,57.355-16.945
		C-143.628,156.667-144.509,155.007-146.126,153.441z"/>
</g>
<g>
	<g>
		<path fill="#F5F6F6" d="M44.974,108.588l6.68,4.086c1.125,0,1.695-0.466,1.695-1.397c0-0.596-0.273-1.421-0.797-2.492
			L37.789,81.061L5.076,81.858c-1.463,0.071-2.191,0.835-2.191,2.297c0,0.329,0.463,0.796,1.393,1.396l6.783,4.087l-7.18,11.165
			c-1.992,3.201-2.992,5.831-2.992,7.888c0,1.864,0.662,3.958,1.996,6.282l22.238,38.792c-0.531-2.457-0.797-4.787-0.797-6.982
			c0-3.916,1.227-7.779,3.689-11.568L44.974,108.588L44.974,108.588z"/>
	</g>
	<g>
		<path fill="#F5F6F6" d="M53.546,85.949l18.35-28.42c-6.852-15.623-14.129-23.442-21.842-23.442c-4.654,0-7.773,1.299-9.369,3.892
			L23.326,65.705L53.546,85.949L53.546,85.949z"/>
	</g>
	<g>
		<path fill="#F5F6F6" d="M38.587,162.937h35.404v-36.793H39.882c-4.186,5.98-6.814,10.041-7.877,12.164
			c-1.73,3.389-2.59,6.848-2.59,10.369C29.416,158.187,32.468,162.937,38.587,162.937L38.587,162.937z"/>
	</g>
	<g>
		<path fill="#F5F6F6" d="M111.493,79.167l15.756-26.53c0.529-0.928,0.795-1.896,0.795-2.891c0-1.198-0.396-1.792-1.191-1.792
			c0.125,0-0.4,0.197-1.598,0.594l-7.178,3.291l-6.584-13.066C108.563,32.926,102.715,30,93.94,30H52.953
			c4.984,1.528,8.371,3.025,10.17,4.486c4.189,3.329,8.477,9.576,12.861,18.752l8.185,17.153l-6.09,2.893
			c-0.594,0.272-0.897,0.797-0.897,1.595c0,0.997,0.632,1.567,1.897,1.696L111.493,79.167L111.493,79.167z"/>
	</g>
	<g>
		<path fill="#F5F6F6" d="M127.247,157.457l22.941-41.687c-3.393,3.86-7.082,6.452-11.068,7.779
			c-3.191,1.065-7.756,1.596-13.67,1.596H99.922v-5.288c0-2.06-0.5-3.092-1.5-3.092c-0.729,0-1.266,0.272-1.596,0.8l-16.15,28.022
			l16.752,25.73c1.266,1.932,2.359,2.691,3.293,2.295c0.928-0.266,1.398-0.764,1.398-1.494v-8.777h14.16
			C121.463,163.341,125.12,161.378,127.247,157.457L127.247,157.457z"/>
	</g>
	<g>
		<path fill="#F5F6F6" d="M117.276,119.857h15.26c3.654,0,7.443-1.595,11.369-4.784c4.188-3.325,6.283-6.851,6.283-10.577
			c0-1.722-0.568-3.417-1.697-5.082l-18.15-27.728L99.12,89.843L117.276,119.857L117.276,119.857z"/>
	</g>
	<g>
		<path fill="#F5F6F6" d="M9.433,216.365l-3.602-7.201h-3.24v7.201H0v-17.09h6.625c3.24,0,5.305,2.088,5.305,4.992
			c0,2.447-1.488,4.008-3.408,4.537l3.936,7.561H9.433z M6.433,201.603H2.591v5.352h3.842c1.727,0,2.904-0.984,2.904-2.664
			S8.16,201.603,6.433,201.603z"/>
		<path fill="#F5F6F6" d="M17.64,216.365v-17.09h10.92v2.328h-8.328v4.992h7.104v2.305h-7.104v5.137h8.328v2.328H17.64z"/>
		<path fill="#F5F6F6" d="M44.521,216.365l-7.896-12.025v12.025h-2.592v-17.09h2.375l7.896,12v-12h2.594v17.09H44.521z"/>
		<path fill="#F5F6F6" d="M53.279,216.365v-17.09h10.922v2.328h-8.33v4.992h7.105v2.305h-7.105v5.137h8.33v2.328H53.279z"/>
		<path fill="#F5F6F6" d="M83.618,216.365H81.36l-3.48-11.979l-3.456,11.979h-2.256l-4.465-17.09h2.736l2.977,12.217l3.434-12.217
			h2.087l3.434,12.217l2.975-12.217h2.736L83.618,216.365z"/>
		<path fill="#F5F6F6" d="M102.071,216.365l-1.176-3.434h-6.744l-1.176,3.434h-2.76l6.264-17.09h2.088l6.266,17.09H102.071z
			 M97.583,203.138l-2.664,7.586h5.258L97.583,203.138z"/>
		<path fill="#F5F6F6" d="M116.086,216.365h-6.912v-17.09h6.648c3.168,0,5.16,1.799,5.16,4.68c0,1.848-1.152,3.168-2.303,3.625
			c1.32,0.527,2.568,1.801,2.568,3.961C121.249,214.683,119.112,216.365,116.086,216.365z M115.608,201.603h-3.842v4.896h3.842
			c1.656,0,2.783-0.865,2.783-2.449S117.264,201.603,115.608,201.603z M115.846,208.828h-4.08v5.209h4.08
			c1.801,0,2.809-1.105,2.809-2.617S117.647,208.828,115.846,208.828z"/>
		<path fill="#F5F6F6" d="M127.006,216.365v-17.09h2.592v14.762h8.234v2.328H127.006z"/>
		<path fill="#F5F6F6" d="M142.704,216.365v-17.09h10.92v2.328h-8.328v4.992h7.104v2.305h-7.104v5.137h8.328v2.328H142.704z"/>
	</g>
</g>
</svg>
