<?xml version="1.0" encoding="utf-8"?>
<!-- Generator: Adobe Illustrator 16.0.0, SVG Export Plug-In . SVG Version: 6.00 Build 0)  -->
<!DOCTYPE svg PUBLIC "-//W3C//DTD SVG 1.1//EN" "http://www.w3.org/Graphics/SVG/1.1/DTD/svg11.dtd">
<svg version="1.1" id="Layer_1" xmlns="http://www.w3.org/2000/svg" xmlns:xlink="http://www.w3.org/1999/xlink" x="0px" y="0px"
	 width="76.717px" height="82.754px" viewBox="0 0 76.717 82.754" enable-background="new 0 0 76.717 82.754" xml:space="preserve">
<g id="Your_Icon">
	<g>
		<path fill="#F5F6F6" d="M20.006,35.923c0,0,0.009,0.061-0.034,0.136l-3.97,7.061c-0.059,0.104-0.018,0.133,0.062,0.194
			l2.502,1.815c0.056,0.032,0.17,0.15,0.258-0.026l3.062-7.412c0.029-0.053,0.08-0.025,0.08-0.025s13.95,7.132,22.91,0.056
			c7.988-6.307,11.473-27.896,19.518-32.41C64.876,5.027,19.601-5.124,20.006,35.923z M55.526,8.658
			c-29.329,3.644-24.682,23.604-29.369,26.664c-0.024,0.015-0.03,0.015-0.076-0.001c-0.329-0.125-1.438-1.014-1.503-1.067
			c-0.055-0.048-0.094-0.063-0.076-0.15C29.385,5.287,57.118,8.177,55.526,8.658z"/>
	</g>
</g>
<g>
	<path fill="#F5F6F6" d="M8.208,79.259H3.022v-12.82H8.01c2.376,0,3.871,1.351,3.871,3.512c0,1.387-0.864,2.377-1.729,2.719
		c0.99,0.396,1.926,1.351,1.926,2.971C12.079,77.998,10.477,79.259,8.208,79.259z M7.848,68.186H4.967v3.673h2.881
		c1.242,0,2.088-0.648,2.088-1.836C9.936,68.834,9.09,68.186,7.848,68.186z M8.028,73.605H4.967v3.907h3.061
		c1.35,0,2.106-0.829,2.106-1.963C10.134,74.415,9.378,73.605,8.028,73.605z"/>
	<path fill="#F5F6F6" d="M14.956,79.259v-12.82h1.945v12.82H14.956z"/>
	<path fill="#F5F6F6" d="M27.702,78.07c-0.829,0.828-1.909,1.297-3.313,1.297c-1.405,0-2.485-0.469-3.313-1.297
		c-1.261-1.261-1.296-2.539-1.296-5.222s0.036-3.961,1.296-5.222c0.828-0.828,1.908-1.296,3.313-1.296
		c1.404,0,2.484,0.468,3.313,1.296c1.26,1.261,1.296,2.539,1.296,5.222S28.962,76.81,27.702,78.07z M26.297,68.852
		c-0.486-0.504-1.134-0.792-1.908-0.792c-0.774,0-1.423,0.288-1.909,0.792c-0.63,0.685-0.756,1.459-0.756,3.997
		c0,2.539,0.126,3.295,0.756,3.979c0.486,0.504,1.134,0.811,1.909,0.811c0.774,0,1.422-0.307,1.908-0.811
		c0.648-0.666,0.756-1.44,0.756-3.979C27.054,70.311,26.946,69.518,26.297,68.852z"/>
	<path fill="#F5F6F6" d="M33.82,68.186v3.907h5.329v1.746H33.82v5.42h-1.945v-12.82h8.192v1.747H33.82z"/>
	<path fill="#F5F6F6" d="M46.799,79.367c-2.61,0-4.591-1.783-4.591-4.43v-8.499h1.943v8.409c0,1.71,1.045,2.772,2.647,2.772
		s2.665-1.062,2.665-2.772v-8.409h1.944v8.499C51.408,77.584,49.409,79.367,46.799,79.367z"/>
	<path fill="#F5F6F6" d="M54.556,79.259v-12.82h8.191v1.747H56.5v3.745h5.329v1.729H56.5v3.854h6.247v1.746H54.556z"/>
	<path fill="#F5F6F6" d="M65.409,79.259v-12.82h1.945v11.074h6.176v1.746H65.409z"/>
</g>
</svg>
