<?xml version="1.0" encoding="utf-8"?>
<!-- Generator: Adobe Illustrator 16.0.0, SVG Export Plug-In . SVG Version: 6.00 Build 0)  -->
<!DOCTYPE svg PUBLIC "-//W3C//DTD SVG 1.1//EN" "http://www.w3.org/Graphics/SVG/1.1/DTD/svg11.dtd">
<svg version="1.1" id="Layer_1" xmlns="http://www.w3.org/2000/svg" xmlns:xlink="http://www.w3.org/1999/xlink" x="0px" y="0px"
	 width="52.276px" height="82.754px" viewBox="0 0 52.276 82.754" enable-background="new 0 0 52.276 82.754" xml:space="preserve">
<g>
	<path fill="#F5F6F6" d="M9.015,78.974c-1.304,0-2.308-0.435-3.077-1.204c-1.153-1.171-1.204-2.358-1.204-4.85
		s0.051-3.679,1.204-4.85c0.77-0.769,1.773-1.204,3.077-1.204c2.191,0,3.83,1.305,4.248,3.663h-1.84
		c-0.268-1.221-1.087-2.057-2.408-2.057c-0.719,0-1.32,0.268-1.756,0.736c-0.602,0.635-0.719,1.354-0.719,3.712
		s0.117,3.077,0.719,3.712c0.436,0.469,1.037,0.736,1.756,0.736c1.321,0,2.158-0.836,2.442-2.057h1.806
		C12.845,77.669,11.19,78.974,9.015,78.974z"/>
	<path fill="#F5F6F6" d="M23.769,77.77c-0.769,0.769-1.772,1.204-3.077,1.204c-1.304,0-2.308-0.435-3.077-1.204
		c-1.17-1.171-1.204-2.358-1.204-4.85s0.034-3.679,1.204-4.85c0.77-0.769,1.773-1.204,3.077-1.204c1.305,0,2.309,0.435,3.077,1.204
		c1.171,1.171,1.204,2.358,1.204,4.85S24.94,76.599,23.769,77.77z M22.465,69.208c-0.452-0.469-1.054-0.736-1.773-0.736
		c-0.719,0-1.321,0.268-1.772,0.736c-0.585,0.635-0.702,1.354-0.702,3.712s0.117,3.061,0.702,3.696
		c0.451,0.468,1.054,0.753,1.772,0.753c0.72,0,1.321-0.285,1.773-0.753c0.602-0.619,0.702-1.338,0.702-3.696
		S23.067,69.826,22.465,69.208z"/>
	<path fill="#F5F6F6" d="M35.663,78.874l-0.819-2.392h-4.699l-0.82,2.392h-1.923l4.365-11.907h1.454l4.365,11.907H35.663z
		 M32.535,69.659l-1.855,5.285h3.662L32.535,69.659z"/>
	<path fill="#F5F6F6" d="M40.617,78.874V66.966h1.806v10.285h5.736v1.622H40.617z"/>
</g>
<path fill="#F5F6F6" d="M52.22,21.138c-0.816-2.154-1.625-4.312-2.439-6.469c-0.543-1.439-0.867-3.057-1.978-4.168
	c-0.544-0.545-1.085-1.086-1.628-1.629l-0.003-0.002c0.456-0.469,0.913-0.937,1.368-1.406c0.212-0.217,0.226-0.559,0.021-0.765
	c-0.777-0.775-1.553-1.552-2.33-2.328c-0.204-0.204-0.546-0.19-0.763,0.019C44,4.846,43.53,5.305,43.062,5.762V5.759
	c-1.789-1.787-3.579-3.576-5.366-5.363c-0.316-0.318-0.837-0.328-1.142-0.021c-2.023,2.021-4.045,4.044-6.068,6.066
	c-0.306,0.306-0.295,0.825,0.02,1.142c1.751,1.75,3.5,3.5,5.25,5.249c-1.727,1.669-3.636,3.522-5.164,4.995
	c-1.548,1.491-3.094,2.979-4.641,4.469c-1.183-1.136-2.367-2.273-3.548-3.409c-1.964-1.888-4.591-4.437-6.554-6.323
	c2.268-1.515,4.865-3.36,7.132-4.875c0.591-0.395,0.633-1.049,0.214-1.585c-1.685-2.155-2.707-3.65-4.394-5.804
	c-0.255-0.326-0.876-0.395-1.206-0.164C14.234,2.458,9.966,4.615,7.291,7.292c-2.675,2.674-4.832,6.942-7.154,10.302
	c-0.23,0.333-0.162,0.952,0.162,1.207c2.156,1.686,3.651,2.709,5.807,4.395c0.533,0.419,1.189,0.377,1.584-0.215
	c1.515-2.267,3.361-4.863,4.875-7.132c1.888,1.964,4.437,4.59,6.322,6.552c1.115,1.16,2.229,2.32,3.344,3.479
	c-1.864,1.795-3.729,3.588-5.592,5.383c-3.225,3.106-6.449,6.211-9.674,9.316c-0.151,0.146-0.303,0.291-0.453,0.436
	c-0.415,0.4-0.418,1.077-0.037,1.458c0.608,0.61,0.885,0.884,1.493,1.493c0.608,0.607,0.886,0.885,1.493,1.493
	c0.381,0.381,1.059,0.379,1.459-0.038c0.145-0.15,0.289-0.301,0.436-0.45c3.105-3.226,6.211-6.45,9.316-9.676
	c1.77-1.837,3.539-3.675,5.308-5.514c1.889,1.966,3.778,3.931,5.666,5.896c2.946,3.068,5.897,6.136,8.847,9.206
	c0.139,0.143,0.275,0.286,0.414,0.43c0.379,0.396,1.039,0.382,1.422,0c0.607-0.609,0.885-0.885,1.492-1.492
	c0.607-0.609,0.885-0.885,1.493-1.494c0.382-0.383,0.396-1.042,0-1.422c-0.144-0.139-0.288-0.275-0.431-0.412
	c-3.068-2.95-6.137-5.898-9.205-8.848c-1.99-1.914-3.979-3.824-5.969-5.737c1.467-1.522,2.932-3.045,4.397-4.565
	c1.47-1.529,3.324-3.438,4.994-5.166c0.505,0.506,1.009,1.01,1.514,1.515c1.03,1.03,2.444,1.327,3.787,1.834
	c2.282,0.861,4.565,1.723,6.848,2.584c0.348,0.13,0.617,0.02,0.78-0.191C52.24,21.755,52.351,21.484,52.22,21.138z"/>
</svg>
