<?xml version="1.0" encoding="utf-8"?>
<!-- Generator: Adobe Illustrator 16.0.0, SVG Export Plug-In . SVG Version: 6.00 Build 0)  -->
<!DOCTYPE svg PUBLIC "-//W3C//DTD SVG 1.1//EN" "http://www.w3.org/Graphics/SVG/1.1/DTD/svg11.dtd">
<svg version="1.1" id="Layer_1" xmlns="http://www.w3.org/2000/svg" xmlns:xlink="http://www.w3.org/1999/xlink" x="0px" y="0px"
	 width="52.275px" height="82.754px" viewBox="0 0 52.275 82.754" enable-background="new 0 0 52.275 82.754" xml:space="preserve">
<g enable-background="new    ">
	<path fill="#F5F6F6" d="M20.659,77.77c-0.77,0.77-1.773,1.204-3.077,1.204c-1.305,0-2.308-0.435-3.077-1.204
		c-1.171-1.171-1.204-2.358-1.204-4.85c0-2.492,0.033-3.68,1.204-4.851c0.769-0.769,1.772-1.204,3.077-1.204
		c1.304,0,2.308,0.436,3.077,1.204c1.17,1.171,1.204,2.358,1.204,4.851C21.864,75.411,21.83,76.599,20.659,77.77z M19.355,69.207
		c-0.452-0.469-1.053-0.736-1.772-0.736s-1.321,0.268-1.773,0.736c-0.585,0.635-0.702,1.354-0.702,3.713
		c0,2.357,0.117,3.06,0.702,3.695c0.452,0.469,1.054,0.753,1.773,0.753s1.321-0.284,1.772-0.753
		c0.602-0.619,0.703-1.338,0.703-3.695C20.057,70.562,19.957,69.825,19.355,69.207z"/>
	<path fill="#F5F6F6" d="M25.529,78.873V66.966h1.806v11.907H25.529z"/>
	<path fill="#F5F6F6" d="M31.434,78.873V66.966h1.806v10.285h5.736v1.622H31.434z"/>
</g>
<g>
	<path fill="#F5F6F6" d="M42.143,5.909c0.002,3.673-7.437,4.905-16.615,4.905c-9.173,0-16.511-1.616-16.611-4.905
		C8.818,2.62,16.355,1,25.529,1C34.706,1,42.14,2.235,42.143,5.909z"/>
	<path fill="#F5F6F6" d="M25.532,13.064c-8.694,0-15.742-2.082-15.742-4.652v9.358V23.2c0,2.568,7.047,4.648,15.742,4.648
		c8.692,0,15.741-2.08,15.741-4.648v-5.429V8.413C41.273,10.982,34.226,13.064,25.532,13.064z"/>
	<path fill="#F5F6F6" d="M25.532,29.682c-8.694,0-15.742-2.081-15.742-4.651v9.359v5.428c0,2.568,7.047,4.652,15.742,4.652
		c8.692,0,15.741-2.084,15.741-4.652v-5.428v-9.359C41.273,27.602,34.226,29.682,25.532,29.682z"/>
	<path fill="#F5F6F6" d="M40.585,43.113c-1.969,1.908-7.963,3.295-15.058,3.295c-7.093,0-13.088-1.391-15.055-3.295
		c-0.443,0.43-0.686,0.885-0.686,1.357c0,2.568,7.05,4.65,15.742,4.65c8.695,0,15.74-2.082,15.74-4.65
		C41.269,43.998,41.029,43.543,40.585,43.113z"/>
</g>
</svg>
