<?xml version="1.0" encoding="utf-8"?>
<!-- Generator: Adobe Illustrator 16.0.0, SVG Export Plug-In . SVG Version: 6.00 Build 0)  -->
<!DOCTYPE svg PUBLIC "-//W3C//DTD SVG 1.1//EN" "http://www.w3.org/Graphics/SVG/1.1/DTD/svg11.dtd">
<svg version="1.1" id="Layer_1" xmlns="http://www.w3.org/2000/svg" xmlns:xlink="http://www.w3.org/1999/xlink" x="0px" y="0px"
	 width="58.381px" height="87.999px" viewBox="0 0 58.381 87.999" enable-background="new 0 0 58.381 87.999" xml:space="preserve">
<g>
	<g>
		<path fill="#F5F6F6" d="M4.716,84.219c-1.789,0-3.061-0.418-4.214-1.572l1.188-1.188c0.869,0.869,1.855,1.154,3.061,1.154
			c1.571,0,2.458-0.669,2.458-1.84c0-0.535-0.134-0.953-0.469-1.237c-0.301-0.268-0.702-0.419-1.304-0.502l-1.405-0.2
			c-0.97-0.15-1.723-0.452-2.241-0.953c-0.585-0.535-0.886-1.305-0.886-2.292c0-2.073,1.505-3.479,3.979-3.479
			c1.589,0,2.676,0.401,3.696,1.354l-1.137,1.138c-0.736-0.702-1.605-0.92-2.626-0.92c-1.404,0-2.157,0.77-2.157,1.856
			c0,0.435,0.117,0.836,0.435,1.104c0.301,0.268,0.652,0.436,1.305,0.535l1.422,0.218c1.087,0.167,1.688,0.418,2.207,0.886
			c0.636,0.586,0.97,1.405,0.97,2.441C8.997,82.914,7.225,84.219,4.716,84.219z"/>
		<path fill="#F5F6F6" d="M19.687,83.015c-0.769,0.769-1.772,1.204-3.077,1.204c-1.304,0-2.308-0.436-3.077-1.204
			c-1.17-1.171-1.204-2.358-1.204-4.851c0-2.491,0.034-3.679,1.204-4.85c0.77-0.77,1.773-1.204,3.077-1.204
			c1.305,0,2.309,0.435,3.077,1.204c1.171,1.171,1.204,2.358,1.204,4.85C20.891,80.656,20.857,81.844,19.687,83.015z M18.383,74.452
			c-0.452-0.469-1.054-0.736-1.773-0.736c-0.719,0-1.32,0.268-1.772,0.736c-0.585,0.636-0.702,1.354-0.702,3.712
			c0,2.358,0.117,3.061,0.702,3.696c0.452,0.468,1.054,0.753,1.772,0.753c0.72,0,1.321-0.285,1.773-0.753
			c0.602-0.618,0.702-1.338,0.702-3.696C19.085,75.807,18.984,75.07,18.383,74.452z"/>
		<path fill="#F5F6F6" d="M24.908,84.118V72.211h1.806v10.285h5.736v1.622H24.908z"/>
		<path fill="#F5F6F6" d="M42.688,84.118l-0.819-2.392H37.17l-0.82,2.392h-1.923l4.365-11.907h1.454l4.365,11.907H42.688z
			 M39.561,74.903l-1.855,5.284h3.662L39.561,74.903z"/>
		<path fill="#F5F6F6" d="M54.214,84.118l-2.509-5.017h-2.258v5.017h-1.806V72.211h4.615c2.258,0,3.696,1.455,3.696,3.479
			c0,1.706-1.037,2.793-2.375,3.16l2.742,5.269H54.214z M52.123,73.833h-2.676v3.729h2.676c1.204,0,2.023-0.686,2.023-1.856
			S53.327,73.833,52.123,73.833z"/>
	</g>
	<path fill="#F5F6F6" d="M28.263,14.697c-6.319,0-11.44,5.124-11.44,11.442c0,6.317,5.121,11.438,11.44,11.438
		c6.316,0,11.438-5.121,11.438-11.438C39.7,19.821,34.579,14.697,28.263,14.697z"/>
	<path fill="#F5F6F6" d="M31.965,3.7c0-2.039-1.662-3.7-3.702-3.7s-3.702,1.661-3.702,3.7v2.952c0,2.042,1.662,3.705,3.702,3.705
		s3.702-1.663,3.702-3.705V3.7z"/>
	<path fill="#F5F6F6" d="M31.965,45.619c0-2.037-1.662-3.698-3.702-3.698s-3.702,1.661-3.702,3.698v2.957
		c0,2.039,1.662,3.699,3.702,3.699s3.702-1.66,3.702-3.699V45.619z"/>
	<path fill="#F5F6F6" d="M17.101,9.745l-2.093-2.087c-0.692-0.7-1.626-1.085-2.613-1.085s-1.917,0.385-2.616,1.085
		C9.08,8.356,8.695,9.285,8.695,10.273c0,0.986,0.385,1.916,1.083,2.613l2.089,2.093c0.697,0.697,1.629,1.083,2.616,1.083
		s1.92-0.385,2.617-1.083C18.541,13.539,18.541,11.191,17.101,9.745z"/>
	<path fill="#F5F6F6" d="M46.743,39.389l-2.089-2.089c-0.701-0.7-1.633-1.084-2.617-1.084c-0.988,0-1.92,0.384-2.617,1.084
		c-1.445,1.443-1.439,3.79,0,5.232l2.094,2.089c0.697,0.7,1.625,1.084,2.617,1.084c0.984,0,1.908-0.387,2.609-1.085
		c0.701-0.696,1.085-1.625,1.09-2.611C47.831,41.018,47.445,40.088,46.743,39.389z"/>
	<path fill="#F5F6F6" d="M8.778,22.437H5.82c-2.038,0-3.697,1.662-3.697,3.702c0,2.037,1.659,3.699,3.697,3.699h2.958
		c2.039,0,3.7-1.662,3.7-3.699C12.479,24.099,10.818,22.437,8.778,22.437z"/>
	<path fill="#F5F6F6" d="M50.699,22.437h-2.955c-2.041,0-3.696,1.661-3.696,3.7c0,2.04,1.655,3.698,3.696,3.698h2.955
		c2.039,0,3.7-1.659,3.7-3.698C54.399,24.098,52.738,22.437,50.699,22.437z"/>
	<path fill="#F5F6F6" d="M18.184,39.91c0-0.988-0.385-1.917-1.083-2.61c-0.697-0.7-1.63-1.084-2.616-1.084
		c-0.992,0-1.919,0.384-2.616,1.084l-2.095,2.089c-0.697,0.698-1.081,1.626-1.081,2.615c0,0.986,0.384,1.916,1.086,2.615
		c0.702,0.698,1.629,1.085,2.612,1.085c0.984,0,1.916-0.384,2.617-1.084l2.093-2.093C17.798,41.83,18.188,40.9,18.184,39.91z"/>
	<path fill="#F5F6F6" d="M46.743,7.657c-0.698-0.702-1.628-1.087-2.62-1.087c-0.989,0-1.916,0.385-2.609,1.083L39.42,9.742
		c-1.439,1.442-1.439,3.789-0.003,5.235c0.697,0.697,1.628,1.083,2.616,1.083c0.992,0,1.92-0.386,2.618-1.083l2.092-2.091
		C48.188,11.442,48.184,9.096,46.743,7.657z"/>
</g>
</svg>
