<?xml version="1.0" encoding="utf-8"?>
<!-- Generator: Adobe Illustrator 16.0.0, SVG Export Plug-In . SVG Version: 6.00 Build 0)  -->
<!DOCTYPE svg PUBLIC "-//W3C//DTD SVG 1.1//EN" "http://www.w3.org/Graphics/SVG/1.1/DTD/svg11.dtd">
<svg version="1.1" id="Layer_1" xmlns="http://www.w3.org/2000/svg" xmlns:xlink="http://www.w3.org/1999/xlink" x="0px" y="0px"
	 width="60.024px" height="88px" viewBox="0 0 60.024 88" enable-background="new 0 0 60.024 88" xml:space="preserve">
<g>
	<g>
		<path fill="#F5F5F5" d="M11.885,84.166h-1.572l-2.425-8.348L5.48,84.166H3.909L0.798,72.257h1.907l2.073,8.514l2.392-8.514h1.455
			l2.392,8.514l2.073-8.514h1.907L11.885,84.166z"/>
		<path fill="#F5F5F5" d="M24.75,84.166l-0.819-2.393h-4.7l-0.819,2.393h-1.923l4.365-11.908h1.455l4.364,11.908H24.75z
			 M21.622,74.949l-1.856,5.285h3.663L21.622,74.949z"/>
		<path fill="#F5F5F5" d="M32.865,84.265c-1.791,0-3.062-0.42-4.215-1.572l1.188-1.188c0.869,0.869,1.857,1.152,3.061,1.152
			c1.572,0,2.459-0.668,2.459-1.84c0-0.535-0.135-0.953-0.469-1.236c-0.301-0.268-0.703-0.418-1.305-0.502l-1.404-0.201
			c-0.971-0.15-1.725-0.451-2.242-0.953c-0.586-0.535-0.887-1.305-0.887-2.291c0-2.072,1.506-3.479,3.982-3.479
			c1.588,0,2.676,0.4,3.693,1.354l-1.139,1.139c-0.734-0.703-1.604-0.92-2.627-0.92c-1.402,0-2.156,0.77-2.156,1.854
			c0,0.438,0.117,0.836,0.436,1.105c0.301,0.27,0.65,0.436,1.305,0.535l1.422,0.219c1.088,0.166,1.689,0.418,2.207,0.887
			c0.637,0.586,0.971,1.404,0.971,2.441C37.145,82.96,35.373,84.265,32.865,84.265z"/>
		<path fill="#F5F5F5" d="M44.941,73.878v10.287h-1.807V73.878h-3.277v-1.621h8.361v1.621H44.941z"/>
		<path fill="#F5F5F5" d="M51.619,84.166V72.257h7.607v1.621h-5.805v3.479h4.951v1.605h-4.951v3.58h5.805v1.621h-7.607V84.166z"/>
	</g>
	<g>
		<path fill="#F5F5F5" d="M19.963,30.518l2.34,1.43c0.395,0,0.594-0.162,0.594-0.489c0-0.208-0.097-0.498-0.279-0.872l-5.169-9.709
			L5.992,21.16c-0.512,0.023-0.767,0.291-0.767,0.803c0,0.116,0.161,0.28,0.487,0.489l2.378,1.43l-2.515,3.909
			c-0.698,1.12-1.047,2.041-1.047,2.762c0,0.654,0.23,1.385,0.697,2.2l7.788,13.583c-0.188-0.859-0.279-1.676-0.279-2.444
			c0-1.371,0.43-2.724,1.291-4.05L19.963,30.518L19.963,30.518z"/>
	</g>
	<g>
		<path fill="#F5F5F5" d="M22.965,22.591l6.426-9.953c-2.398-5.469-4.948-8.207-7.647-8.207c-1.629,0-2.723,0.456-3.281,1.361
			l-6.077,9.71L22.965,22.591L22.965,22.591z"/>
	</g>
	<g>
		<path fill="#F5F5F5" d="M17.729,49.548h12.396V36.664H18.183c-1.468,2.094-2.388,3.517-2.76,4.259
			c-0.606,1.187-0.909,2.4-0.909,3.632C14.514,47.884,15.584,49.548,17.729,49.548L17.729,49.548z"/>
	</g>
	<g>
		<path fill="#F5F5F5" d="M43.256,20.217l5.518-9.291c0.186-0.325,0.279-0.663,0.279-1.012c0-0.419-0.139-0.628-0.418-0.628
			c0.043,0-0.141,0.069-0.559,0.209l-2.516,1.151l-2.309-4.574C42.229,4.024,40.182,3,37.109,3H22.757
			c1.745,0.536,2.932,1.06,3.562,1.571c1.467,1.164,2.967,3.353,4.503,6.565l2.865,6.007l-2.133,1.014
			c-0.209,0.094-0.311,0.279-0.311,0.558c0,0.349,0.219,0.549,0.662,0.594L43.256,20.217L43.256,20.217z"/>
	</g>
	<g>
		<path fill="#F5F5F5" d="M48.771,47.628l8.031-14.596c-1.186,1.352-2.479,2.259-3.875,2.724c-1.117,0.374-2.715,0.56-4.785,0.56
			h-8.938v-1.853c0-0.721-0.178-1.082-0.525-1.082c-0.258,0-0.441,0.094-0.559,0.279l-5.656,9.812l5.865,9.011
			c0.443,0.677,0.826,0.942,1.152,0.804c0.324-0.094,0.49-0.266,0.49-0.523v-3.074h4.957C46.748,49.689,48.025,49.003,48.771,47.628
			L48.771,47.628z"/>
	</g>
	<g>
		<path fill="#F5F5F5" d="M45.281,34.463h5.344c1.277,0,2.604-0.559,3.979-1.676c1.469-1.163,2.199-2.397,2.199-3.702
			c0-0.604-0.199-1.197-0.594-1.78l-6.355-9.708l-10.93,6.357L45.281,34.463L45.281,34.463z"/>
	</g>
</g>
</svg>
