<?xml version="1.0" encoding="utf-8"?>
<!-- Generator: Adobe Illustrator 16.0.0, SVG Export Plug-In . SVG Version: 6.00 Build 0)  -->
<!DOCTYPE svg PUBLIC "-//W3C//DTD SVG 1.1//EN" "http://www.w3.org/Graphics/SVG/1.1/DTD/svg11.dtd">
<svg version="1.1" id="Layer_1" xmlns="http://www.w3.org/2000/svg" xmlns:xlink="http://www.w3.org/1999/xlink" x="0px" y="0px"
	 width="52.275px" height="84.35px" viewBox="0 0 52.275 84.35" enable-background="new 0 0 52.275 84.35" xml:space="preserve">
<g>
	<g>
		<path fill="#F5F6F6" d="M14.048,80.469h-1.571l-2.426-8.345l-2.408,8.345H6.071L2.96,68.562h1.907l2.073,8.512l2.392-8.512h1.455
			l2.392,8.512l2.073-8.512h1.906L14.048,80.469z"/>
		<path fill="#F5F6F6" d="M20.24,80.469V68.562h1.806v11.907H20.24z"/>
		<path fill="#F5F6F6" d="M33.805,80.469l-5.502-8.378v8.378h-1.806V68.562h1.655l5.502,8.361v-8.361h1.807v11.907H33.805z"/>
		<path fill="#F5F6F6" d="M47.471,78.964c-0.836,1.037-1.89,1.505-3.378,1.505h-4.181V68.562h4.181c1.488,0,2.542,0.469,3.378,1.505
			c0.87,1.07,0.903,2.542,0.903,4.448C48.374,76.422,48.341,77.894,47.471,78.964z M45.933,70.987
			c-0.502-0.585-1.188-0.819-2.041-0.819h-2.174v8.696h2.174c0.854,0,1.539-0.234,2.041-0.819c0.585-0.652,0.635-1.756,0.635-3.529
			C46.567,72.743,46.518,71.639,45.933,70.987z"/>
	</g>
	<circle fill="#F5F6F6" cx="26.463" cy="29.715" r="1.943"/>
	<path fill="#F5F6F6" d="M23.66,22.486l0.934,3.058c0.57-0.257,1.201-0.404,1.869-0.404c0.186,0,0.368,0.014,0.547,0.034
		c0.013-4.473,0.055-20.301-0.002-24.389c-0.064-4.683-6.769,12.913-6.697,17.489C20.334,19.62,23.66,22.486,23.66,22.486z"/>
	<path fill="#F5F6F6" d="M39.635,30.189c-1.176-0.654-5.32,0.794-5.32,0.794l-3.305-0.764c-0.092,0.828-0.406,1.585-0.877,2.221
		c3.62,2.102,17.676,10.265,21.299,12.295C55.52,47.018,43.634,32.413,39.635,30.189z"/>
	<path fill="#F5F6F6" d="M22.065,30.963C18.797,32.838,4.206,41.21,0.566,43.376c-4.023,2.396,14.569-0.595,18.496-2.945
		c1.154-0.691,1.971-5.005,1.971-5.005l2.258-2.417C22.717,32.453,22.288,31.751,22.065,30.963z"/>
</g>
</svg>
