<?xml version="1.0" encoding="utf-8"?>
<!-- Generator: Adobe Illustrator 16.0.0, SVG Export Plug-In . SVG Version: 6.00 Build 0)  -->
<!DOCTYPE svg PUBLIC "-//W3C//DTD SVG 1.1//EN" "http://www.w3.org/Graphics/SVG/1.1/DTD/svg11.dtd">
<svg version="1.1" id="Layer_1" xmlns="http://www.w3.org/2000/svg" xmlns:xlink="http://www.w3.org/1999/xlink" x="0px" y="0px"
	 width="75.309px" height="153.521px" viewBox="0 0 75.309 153.521" enable-background="new 0 0 75.309 153.521"
	 xml:space="preserve">
<path fill="#F5F6F6" d="M43.973,46.511c0-2.852-2.31-5.168-5.169-5.168c-2.85,0-5.169,2.317-5.169,5.168
	c0,2.851,2.319,5.166,5.169,5.166C41.663,51.676,43.973,49.361,43.973,46.511z"/>
<path fill="#F5F6F6" d="M53.296,82.738c3.39,0.467,5.391,4.037,4.032,7.172c-0.081,0.193-0.176,0.374-0.281,0.553
	c-0.025,0.048-0.053,0.088-0.078,0.128c-0.027,0.045-0.05-0.022-0.06-0.05c-0.038-0.091-0.076-0.179-0.113-0.271
	c-0.148-0.359-0.297-0.723-0.452-1.079c-0.312-0.729-0.63-1.456-0.959-2.18C54.728,85.57,54.034,84.139,53.296,82.738z"/>
<path fill="#F5F6F6" d="M30.193,46.511c0-2.852-2.314-5.168-5.167-5.168c-2.856,0-5.171,2.317-5.171,5.168
	c0,2.851,2.314,5.166,5.171,5.166C27.879,51.676,30.193,49.361,30.193,46.511z"/>
<path fill="#F5F6F6" d="M57.755,18.949c0-2.858-2.314-5.168-5.166-5.168c-2.857,0-5.172,2.311-5.172,5.168
	c0,2.851,2.314,5.168,5.172,5.168C55.44,24.117,57.755,21.8,57.755,18.949z"/>
<path fill="#F5F6F6" d="M43.973,32.727c0-2.851-2.31-5.165-5.169-5.165c-2.85,0-5.169,2.314-5.169,5.165
	c0,2.86,2.319,5.171,5.169,5.171C41.663,37.898,43.973,35.587,43.973,32.727z"/>
<path fill="#F5F6F6" d="M57.755,32.727c0-2.851-2.314-5.165-5.166-5.165c-2.857,0-5.172,2.314-5.172,5.165
	c0,2.86,2.314,5.171,5.172,5.171C55.44,37.898,57.755,35.587,57.755,32.727z"/>
<path fill="#F5F6F6" d="M43.973,5.165c0-2.854-2.31-5.165-5.169-5.165c-2.85,0-5.169,2.311-5.169,5.165
	c0,2.854,2.319,5.171,5.169,5.171C41.663,10.336,43.973,8.019,43.973,5.165z"/>
<path fill="#F5F6F6" d="M43.973,18.949c0-2.858-2.31-5.168-5.169-5.168c-2.85,0-5.169,2.311-5.169,5.168
	c0,2.851,2.319,5.168,5.169,5.168C41.663,24.117,43.973,21.8,43.973,18.949z"/>
<path fill="#F5F6F6" d="M30.193,18.949c0-2.858-2.314-5.168-5.167-5.168c-2.856,0-5.171,2.311-5.171,5.168
	c0,2.851,2.314,5.168,5.171,5.168C27.879,24.117,30.193,21.8,30.193,18.949z"/>
<path fill="#F5F6F6" d="M30.193,32.727c0-2.851-2.314-5.165-5.167-5.165c-2.856,0-5.171,2.314-5.171,5.165
	c0,2.86,2.314,5.171,5.171,5.171C27.879,37.898,30.193,35.587,30.193,32.727z"/>
<path fill="#F5F6F6" d="M57.755,60.288c0-2.853-2.314-5.165-5.166-5.165c-2.857,0-5.172,2.312-5.172,5.165
	c0,2.857,2.314,5.171,5.172,5.171C55.44,65.459,57.755,63.145,57.755,60.288z"/>
<path fill="#F5F6F6" d="M52.589,41.342c2.852,0,5.166,2.317,5.166,5.168c0,2.851-2.314,5.166-5.166,5.166
	c-2.857,0-5.172-2.315-5.172-5.166C47.417,43.659,49.731,41.342,52.589,41.342z"/>
<path fill="#F5F6F6" d="M1.439,58.113c-3.738,13.864-0.201,29.285,10.676,40.165c10.885,10.881,39.75,21.387,53.617,17.644
	c4.072-29.238-13.244-36.245-24.124-47.129C30.723,57.912,15.304,54.371,1.439,58.113z"/>
<g>
	<path fill="#F5F6F6" d="M71.456,100.854c4.135-8.912,4.943-18.983,2.415-28.344c-6.841-1.849-14.062-1.91-20.929-0.203
		C61.016,79.099,69.825,86.14,71.456,100.854z"/>
	<path fill="#F5F6F6" d="M23.199,101.079c-2.063,7.263-2.132,14.978-0.163,22.263c12.943,3.499,27.235,0.643,37.932-8.601
		C48.828,113.747,33.203,107.912,23.199,101.079z"/>
</g>
<path fill="#F5F6F6" d="M43.059,63.192c0.813-1.197,1.14-2.715,0.743-4.213c-0.678-2.588-3.218-4.228-5.854-3.786
	c-1.396,0.236-2.348,0.806-3.219,1.923c-0.088,0.112-0.136,0.25-0.216,0.368C37.531,59.003,40.408,60.891,43.059,63.192z"/>
<path fill="#F5F6F6" d="M39.459,78.325c16.134,9.278,27.021,8.658,27.024,28.608c-0.003,19.947-10.888,37.31-27.027,46.588
	c-16.134-9.278-29.675-37.859-29.68-57.81C9.781,75.765,23.322,87.604,39.459,78.325z"/>
</svg>
