<?xml version="1.0" encoding="utf-8"?>
<!-- Generator: Adobe Illustrator 16.0.0, SVG Export Plug-In . SVG Version: 6.00 Build 0)  -->
<!DOCTYPE svg PUBLIC "-//W3C//DTD SVG 1.1//EN" "http://www.w3.org/Graphics/SVG/1.1/DTD/svg11.dtd">
<svg version="1.1" id="Layer_1" xmlns="http://www.w3.org/2000/svg" xmlns:xlink="http://www.w3.org/1999/xlink" x="0px" y="0px"
	 width="263.5px" height="60.5px" viewBox="0 0 263.5 60.5" enable-background="new 0 0 263.5 60.5" xml:space="preserve">
<path fill="#E9F1FA" d="M163.266,28.502c0-6.514-4.873-11.387-10.842-11.387c-6.133,0-10.881,5-10.881,11.387v25.527l3.445-2.232
	V36.191c1.764,2.184,4.494,3.654,7.478,3.654C158.477,39.848,163.266,34.973,163.266,28.502 M159.693,28.502
	c0,4.537-3.277,8.068-7.271,8.068c-3.989,0-7.312-3.574-7.312-8.068c0-4.497,3.363-8.068,7.312-8.068
	C156.416,20.434,159.693,23.965,159.693,28.502 M167.43,31.4c0,5.506,3.487,8.486,8.572,7.898v-3.361
	c-2.688,0.127-5.043-0.84-5.043-4.664V8.039l-3.529,2.05V31.4z M198.729,28.502c0-6.387-4.707-11.387-10.843-11.387
	c-6.009,0-10.883,4.873-10.883,11.387c0,6.471,4.832,11.346,10.798,11.346c3.068,0,5.799-1.557,7.48-3.908v3.36h3.445V28.502
	H198.729z M195.195,28.502c0,4.453-3.318,8.025-7.311,8.025c-4.033,0-7.312-3.488-7.312-8.025s3.278-8.109,7.312-8.109
	C191.835,20.393,195.195,24.005,195.195,28.502 M206.636,26.022c0-3.235,2.144-5.589,5.505-5.589c3.318,0,5.463,2.354,5.463,5.589
	V39.3h3.528V26.148c0-5.463-3.823-9.033-8.991-9.033s-9.033,3.57-9.033,9.033V39.3h3.529L206.636,26.022L206.636,26.022z
	 M242.32,32.578c-1.387,2.52-3.53,3.865-6.596,3.865c-2.481,0-4.875-1.221-6.263-3.404l16.597-7.017
	c-1.261-5.63-5.84-8.907-10.545-8.907c-6.011,0-10.885,5.125-10.885,11.387c0,6.344,4.874,11.303,11.096,11.303
	c5,0,8.611-2.604,10.293-7.227H242.32z M228.202,28.459c0-4.957,3.866-7.983,7.312-7.983c2.437,0,4.83,1.472,6.176,3.825
	l-13.362,5.63C228.243,29.468,228.202,29.006,228.202,28.459 M258.113,36.021c-2.688,0.17-5-0.799-5-4.621V21.064h4.23l2.174-3.404
	h-6.404v-5.986l-3.53,2.048V31.4c0,5.506,3.487,8.486,8.53,7.898V36.021z"/>
<path fill="#8F9194" d="M158.141,47.411c0.15-0.263,0.063-0.522-0.154-0.677c-0.545-0.395-1.725-0.981-3.055-0.981
	c-2.16,0-3.602,1.658-3.602,3.534v6.285c0,0.305,0.174,0.479,0.48,0.479h0.719c0.306,0,0.481-0.174,0.481-0.479v-3.361
	c0-0.306,0.175-0.479,0.479-0.479h3.143c0.307,0,0.479-0.176,0.479-0.48v-0.479c0-0.308-0.174-0.48-0.479-0.48h-3.143
	c-0.305,0-0.479-0.175-0.479-0.48V49.29c0-0.981,0.697-1.985,1.921-1.985c0.916,0,1.7,0.394,2.27,0.741
	c0.217,0.132,0.521,0.087,0.676-0.174L158.141,47.411z M167.699,52.734v-3.447c0-1.876-1.439-3.534-3.6-3.534
	c-2.162,0-3.603,1.658-3.603,3.534v3.447c0,1.877,1.44,3.535,3.603,3.535C166.26,56.271,167.699,54.611,167.699,52.734
	 M166.02,52.734c0,0.983-0.697,1.986-1.92,1.986c-1.224,0-1.92-1.003-1.92-1.986v-3.447c0-0.98,0.696-1.986,1.92-1.986
	c1.223,0,1.92,1.006,1.92,1.986V52.734z M177.499,52.734V46.45c0-0.306-0.172-0.479-0.478-0.479H176.3
	c-0.304,0-0.479,0.176-0.479,0.479v6.284c0,0.983-0.697,1.986-1.92,1.986c-1.221,0-1.92-1.003-1.92-1.986V46.45
	c0-0.306-0.174-0.479-0.48-0.479h-0.719c-0.307,0-0.479,0.176-0.479,0.479v6.284c0,1.877,1.439,3.535,3.601,3.535
	C176.062,56.27,177.499,54.611,177.499,52.734 M188.018,55.572V46.45c0-0.306-0.174-0.479-0.479-0.479h-0.608
	c-0.308,0-0.48,0.176-0.48,0.479v5.958c0,0.174-0.176,0.218-0.307,0l-3.381-5.958c-0.154-0.263-0.328-0.479-0.635-0.479h-0.828
	c-0.306,0-0.48,0.176-0.48,0.479v9.122c0,0.305,0.176,0.479,0.48,0.479h0.61c0.306,0,0.479-0.174,0.479-0.479v-6.023
	c0-0.175,0.195-0.218,0.305,0l3.384,6.023c0.153,0.261,0.327,0.479,0.632,0.479h0.829C187.844,56.051,188.018,55.877,188.018,55.572
	 M198.535,52.734v-3.447c0-1.876-1.439-3.316-3.6-3.316h-2.643c-0.609,0-0.96,0.35-0.96,0.961v8.159c0,0.611,0.351,0.96,0.96,0.96
	h2.643C197.096,56.051,198.535,54.611,198.535,52.734 M196.855,52.734c0,0.983-0.699,1.877-1.92,1.877h-1.44
	c-0.306,0-0.481-0.174-0.481-0.479v-6.239c0-0.308,0.176-0.48,0.481-0.48h1.44c1.221,0,1.92,0.895,1.92,1.876V52.734z
	 M208.337,55.572v-6.285c0-1.876-1.44-3.534-3.601-3.534c-2.161,0-3.603,1.658-3.603,3.534v6.285c0,0.305,0.177,0.479,0.48,0.479
	h0.72c0.307,0,0.48-0.174,0.48-0.479v-3.361c0-0.306,0.175-0.479,0.479-0.479h2.883c0.304,0,0.479,0.174,0.479,0.479v3.361
	c0,0.305,0.174,0.479,0.479,0.479h0.722C208.161,56.051,208.337,55.877,208.337,55.572 M206.656,49.811
	c0,0.307-0.176,0.48-0.479,0.48h-2.883c-0.305,0-0.479-0.175-0.479-0.48v-0.522c0-0.981,0.697-1.986,1.92-1.986
	s1.92,1.005,1.92,1.986v0.522H206.656z M217.42,46.932v-0.48c0-0.305-0.175-0.479-0.479-0.479H210.7
	c-0.306,0-0.479,0.174-0.479,0.479v0.48c0,0.305,0.174,0.479,0.479,0.479h1.811c0.306,0,0.479,0.174,0.479,0.479v7.682
	c0,0.305,0.176,0.479,0.48,0.479h0.698c0.308,0,0.479-0.174,0.479-0.479v-7.682c0-0.307,0.175-0.479,0.479-0.479h1.812
	C217.245,47.411,217.42,47.234,217.42,46.932 M226.505,55.572v-0.481c0-0.305-0.174-0.479-0.479-0.479h-1.812
	c-0.306,0-0.479-0.174-0.479-0.479v-6.24c0-0.307,0.174-0.479,0.479-0.479h1.093c0.305,0,0.479-0.177,0.479-0.479v-0.48
	c0-0.305-0.174-0.479-0.479-0.479h-4.803c-0.306,0-0.479,0.174-0.479,0.479v0.48c0,0.305,0.173,0.479,0.479,0.479h1.094
	c0.305,0,0.479,0.174,0.479,0.479v6.24c0,0.307-0.176,0.479-0.479,0.479h-1.812c-0.307,0-0.48,0.176-0.48,0.479v0.481
	c0,0.305,0.176,0.479,0.48,0.479h6.24C226.331,56.051,226.505,55.877,226.505,55.572 M235.591,52.734v-3.447
	c0-1.876-1.44-3.534-3.601-3.534c-2.161,0-3.602,1.658-3.602,3.534v3.447c0,1.877,1.439,3.535,3.602,3.535
	C234.15,56.271,235.591,54.611,235.591,52.734 M233.91,52.734c0,0.983-0.699,1.986-1.92,1.986c-1.223,0-1.922-1.003-1.922-1.986
	v-3.447c0-0.98,0.699-1.986,1.922-1.986c1.221,0,1.92,1.006,1.92,1.986V52.734z M245.393,55.572V46.45
	c0-0.306-0.174-0.479-0.479-0.479h-0.611c-0.306,0-0.479,0.176-0.479,0.479v5.958c0,0.174-0.176,0.218-0.305,0l-3.384-5.958
	c-0.153-0.263-0.327-0.479-0.634-0.479h-0.829c-0.305,0-0.479,0.176-0.479,0.479v9.122c0,0.305,0.176,0.479,0.479,0.479h0.612
	c0.305,0,0.479-0.174,0.479-0.479v-6.023c0-0.175,0.196-0.218,0.307,0l3.382,6.023c0.153,0.261,0.327,0.479,0.634,0.479h0.829
	C245.219,56.051,245.393,55.877,245.393,55.572"/>
<path fill="#E9F1FA" d="M26.991,28.562c0-6.469-4.79-11.302-10.798-11.302c-2.984,0-5.715,1.429-7.48,3.656V8.186l-3.445,2.233
	v18.144c0,6.43,4.748,11.387,10.882,11.387C22.118,39.949,26.991,35.076,26.991,28.562 M23.419,28.562
	c0,4.581-3.276,8.11-7.269,8.11c-3.949,0-7.31-3.611-7.31-8.11c0-4.453,3.32-8.024,7.31-8.024
	C20.143,20.538,23.419,24.066,23.419,28.562 M31.025,31.547c0,5.504,3.487,8.486,8.571,7.898v-3.361
	c-2.688,0.127-5.042-0.84-5.042-4.663V8.186l-3.529,2.049V31.547z M56.223,30.917c0,3.235-2.144,5.588-5.462,5.588
	c-3.362,0-5.505-2.353-5.505-5.588v-13.11h-3.53v13.11c0,5.462,3.951,9.032,9.035,9.032c5.083,0,9.033-3.57,9.033-9.032v-13.11
	h-3.571V30.917z M80.981,32.723c-1.386,2.521-3.529,3.866-6.596,3.866c-2.479,0-4.874-1.22-6.26-3.403l16.596-7.018
	c-1.26-5.63-5.84-8.907-10.546-8.907c-6.009,0-10.882,5.126-10.882,11.386c0,6.346,4.873,11.303,11.092,11.303
	c5,0,8.614-2.604,10.294-7.228H80.981z M66.864,28.605c0-4.957,3.866-7.983,7.311-7.983c2.437,0,4.832,1.472,6.176,3.823
	L66.99,30.076C66.906,29.613,66.864,29.152,66.864,28.605"/>
<path fill="#7EC0EA" d="M93.924,29.592h-0.01c0.427,3.006,1.528,5.795,3.151,8.213l0.015,0.004
	C95.458,35.396,94.352,32.604,93.924,29.592"/>
<path fill="#E9F1FA" d="M109.63,21.373c-2.829,2.57-5.722,4.541-8.362,5.91c2.154,2.531,5.573,4.537,11.156,4.609
	c1.702,0.021,3.33,0.119,4.853,0.279c2.854-2.581,5.767-4.552,8.422-5.906c-2.159-2.536-5.578-4.541-11.161-4.616
	C112.816,21.631,111.173,21.531,109.63,21.373"/>
<path fill="#90CFF2" d="M101.269,27.283c-2.893,1.494-5.479,2.268-7.344,2.307c0.426,3.014,1.533,5.809,3.156,8.219
	c1.712,0.722,3.9,1.404,6.451,1.404c3.583,0,7.866-1.354,12.515-5.886c0.407-0.397,0.819-0.784,1.231-1.155
	c-1.523-0.16-3.151-0.258-4.853-0.277C106.842,31.818,103.423,29.814,101.269,27.283"/>
<path fill="#9ACBEE" d="M131.451,18.51c0.79,1.722,1.34,3.578,1.607,5.523h0.004C132.795,22.088,132.245,20.231,131.451,18.51"/>
<path fill="#90CFF2" d="M123.288,14.41c-3.583,0-7.866,1.355-12.515,5.886c-0.377,0.368-0.76,0.729-1.142,1.077
	c1.544,0.158,3.186,0.258,4.908,0.277c5.583,0.075,9.002,2.08,11.161,4.615c2.908-1.488,5.498-2.232,7.339-2.232h0.02
	c-0.268-1.945-0.818-3.801-1.607-5.523c-0.379-0.834-0.82-1.639-1.312-2.407c-0.035-0.054-0.07-0.108-0.106-0.163l-0.059-0.025
	C128.23,15.164,125.953,14.41,123.288,14.41"/>
<path fill="#C3E2F1" d="M113.109,3.559L113.109,3.559c-6.034,0-11.989,2.307-16.361,6.862c-5.052,5.255-7.395,13.041-5.732,17.786
	c0.327,0.923,1.315,1.384,2.759,1.384h0.139c-0.129-0.918-0.198-1.856-0.198-2.808c0-1.182,0.109-2.333,0.307-3.45
	c0.308-1.761,0.854-3.438,1.598-5.007c0.094-0.213,0.199-0.422,0.298-0.631c0.139-0.272,0.258-0.485,0.362-0.649
	c0.199-0.342,0.407-0.685,0.62-1.019c0.125-0.192,0.253-0.381,0.382-0.564l0.055-0.084c3.543-5.104,9.478-8.393,16.158-8.393
	c4.461,0,8.575,1.479,11.88,3.98c1.827,1.374,3.405,3.057,4.66,4.977c1.707,0.74,2.899,1.475,3.424,1.475
	c0.358,0,0.418-0.327,0.146-1.195c-0.576-1.837-1.96-4.184-4.432-6.432C124.587,5.617,118.812,3.559,113.109,3.559"/>
<path fill="#56B3E5" d="M96.281,17.047c-0.104,0.163-0.223,0.377-0.362,0.649c-0.099,0.208-0.204,0.417-0.298,0.63
	C95.824,17.889,96.048,17.463,96.281,17.047 M94.023,23.333c-0.198,1.117-0.307,2.269-0.307,3.449c0,0.953,0.069,1.892,0.198,2.81
	h0.01c-0.134-0.918-0.199-1.856-0.199-2.81C93.726,25.605,93.825,24.455,94.023,23.333"/>
<path fill="#ADD3F0" d="M125.377,10.967c1.826,1.375,3.399,3.057,4.655,4.973l0.005,0.006
	C128.781,14.023,127.203,12.342,125.377,10.967"/>
<path fill="#C3E2F1" d="M97.284,15.463c-0.129,0.184-0.258,0.372-0.382,0.564c-0.214,0.334-0.422,0.677-0.62,1.019
	c0.178-0.269,0.322-0.392,0.446-0.392c0.869,0,0.725,6.143,4.541,10.63c2.64-1.37,5.533-3.341,8.362-5.911
	c-7.469-0.784-12.561-3.032-12.575-5.141C97.056,15.969,97.13,15.716,97.284,15.463"/>
<path fill="#ADD3F0" d="M95.622,18.326c-0.744,1.568-1.29,3.246-1.598,5.007C94.336,21.586,94.882,19.919,95.622,18.326"/>
<path fill="#51B8E4" d="M96.728,16.654c-0.124,0-0.268,0.123-0.447,0.392c-0.233,0.417-0.456,0.843-0.66,1.28
	c-0.739,1.593-1.285,3.26-1.597,5.007c-0.199,1.122-0.298,2.272-0.298,3.45c0,0.951,0.064,1.89,0.198,2.808
	c1.866-0.04,4.451-0.813,7.345-2.308C97.453,22.797,97.597,16.654,96.728,16.654"/>
<path fill="#6AB8E7" d="M113.497,6.986c-6.68,0-12.615,3.291-16.158,8.392l-0.054,0.085c3.573-5.115,9.508-8.456,16.217-8.456
	c4.466,0,8.575,1.47,11.875,3.96C122.072,8.466,117.958,6.986,113.497,6.986"/>
<path fill="#51B8E4" d="M113.501,7.007c-6.709,0-12.645,3.34-16.218,8.456c-0.153,0.253-0.228,0.506-0.228,0.768
	c0.015,2.11,5.107,4.358,12.575,5.143c0.382-0.348,0.764-0.709,1.142-1.077c4.649-4.53,8.932-5.886,12.515-5.886
	c2.665,0,4.943,0.755,6.685,1.504l0.059,0.025c-1.255-1.916-2.828-3.598-4.655-4.973C122.076,8.477,117.967,7.007,113.501,7.007"/>
<path fill="#C3E2F1" d="M133.062,24.033c0.125,0.893,0.19,1.801,0.19,2.729c0,1.062-0.09,2.1-0.254,3.112
	c-0.308,1.931-0.893,3.776-1.712,5.479c-0.079,0.168-0.159,0.336-0.243,0.5c-0.129,0.264-0.244,0.472-0.348,0.631
	c-0.63,1.121-1.365,2.173-2.193,3.146c-1.802,2.127-4.059,3.86-6.62,5.062c-2.541,1.201-5.38,1.871-8.382,1.871
	c-0.859,0-1.707-0.056-2.536-0.164c-5.785-0.734-10.793-3.969-13.9-8.594c-0.074-0.031-0.149-0.065-0.218-0.097
	c-1.747-0.749-2.953-1.503-3.489-1.503c-0.352,0-0.417,0.328-0.144,1.189c0.576,1.842,1.961,4.186,4.432,6.433
	c4.586,4.174,10.362,6.237,16.063,6.237c6.035,0,11.985-2.308,16.362-6.862c5.056-5.255,7.394-13.041,5.726-17.79
	C135.48,24.494,134.498,24.038,133.062,24.033"/>
<path fill="#56B3E5" d="M97.065,37.805c3.106,4.625,8.114,7.86,13.9,8.594c-5.781-0.737-10.778-3.975-13.885-8.59L97.065,37.805z"/>
<path fill="#56B3E5" d="M128.503,39.631c-1.811,2.123-4.064,3.86-6.62,5.062C124.443,43.491,126.702,41.76,128.503,39.631"/>
<path fill="#C3E2F1" d="M125.699,26.266L125.699,26.266c-2.655,1.355-5.568,3.326-8.421,5.906
	c7.523,0.773,12.649,3.036,12.629,5.161c0,0.282-0.094,0.56-0.283,0.833c-0.352,0.506-0.724,0.993-1.121,1.465
	c0.829-0.974,1.563-2.025,2.193-3.146c-0.183,0.283-0.327,0.412-0.456,0.412C129.376,36.896,129.521,30.752,125.699,26.266"/>
<path fill="#ADD3F0" d="M132.999,29.874c-0.317,1.926-0.913,3.762-1.712,5.478C132.106,33.65,132.691,31.805,132.999,29.874
	 M121.883,44.691c-2.551,1.195-5.409,1.865-8.412,1.865c-0.848,0-1.687-0.055-2.505-0.158c0.828,0.108,1.677,0.164,2.535,0.164
	C116.503,46.562,119.342,45.893,121.883,44.691"/>
<path fill="#51B8E4" d="M117.278,32.172L117.278,32.172c-0.412,0.371-0.824,0.76-1.231,1.156c-4.65,4.529-8.932,5.885-12.515,5.885
	c-2.551,0-4.739-0.686-6.451-1.404c3.106,4.615,8.103,7.852,13.885,8.59c0.819,0.105,1.657,0.16,2.506,0.16
	c3.002,0,5.861-0.67,8.411-1.867c2.556-1.199,4.809-2.938,6.62-5.061c0.397-0.473,0.769-0.959,1.122-1.465
	c0.188-0.271,0.282-0.551,0.282-0.834C129.927,35.209,124.801,32.945,117.278,32.172"/>
<path fill="#6AB8E7" d="M133.062,24.033h-0.004c0.118,0.889,0.184,1.791,0.184,2.714c0,1.062-0.084,2.11-0.243,3.127
	c0.164-1.013,0.254-2.05,0.254-3.112C133.253,25.834,133.188,24.926,133.062,24.033"/>
<path fill="#6AB8E7" d="M131.287,35.354c-0.184,0.388-0.382,0.765-0.59,1.131c0.104-0.159,0.218-0.366,0.347-0.631
	C131.128,35.689,131.208,35.521,131.287,35.354"/>
<path fill="#51B8E4" d="M133.059,24.033h-0.02c-1.841,0-4.432,0.744-7.34,2.232c3.821,4.486,3.678,10.631,4.541,10.631
	c0.129,0,0.273-0.129,0.456-0.412c0.209-0.367,0.408-0.745,0.591-1.131c0.799-1.72,1.395-3.556,1.713-5.479
	c0.159-1.017,0.242-2.065,0.242-3.127C133.242,25.824,133.177,24.922,133.059,24.033"/>
</svg>
