<?xml version="1.0" encoding="utf-8"?>
<!-- Generator: Adobe Illustrator 16.0.0, SVG Export Plug-In . SVG Version: 6.00 Build 0)  -->
<!DOCTYPE svg PUBLIC "-//W3C//DTD SVG 1.1//EN" "http://www.w3.org/Graphics/SVG/1.1/DTD/svg11.dtd">
<svg version="1.1" id="Layer_1" xmlns="http://www.w3.org/2000/svg" xmlns:xlink="http://www.w3.org/1999/xlink" x="0px" y="0px"
	 width="174.207px" height="152.419px" viewBox="0 0 174.207 152.419" enable-background="new 0 0 174.207 152.419"
	 xml:space="preserve">
<g>
	<g>
		<path fill="#F5F6F6" d="M174.018,70.439c-2.713-7.183-5.416-14.371-8.127-21.552c-1.811-4.803-2.889-10.189-6.594-13.894
			c-1.809-1.813-3.617-3.619-5.424-5.425c0,0-0.004-0.002-0.008-0.009c1.52-1.56,3.041-3.122,4.561-4.683
			c0.707-0.721,0.756-1.862,0.068-2.548c-2.584-2.58-5.174-5.169-7.764-7.759c-0.682-0.682-1.824-0.638-2.543,0.062
			c-1.561,1.523-3.129,3.048-4.689,4.564h-0.002c-5.961-5.958-11.92-11.922-17.881-17.882c-1.051-1.055-2.783-1.085-3.805-0.064
			c-6.738,6.736-13.479,13.477-20.217,20.218c-1.02,1.023-0.988,2.75,0.064,3.808c5.832,5.833,11.66,11.662,17.492,17.492
			c-5.754,5.562-12.117,11.731-17.209,16.638c-5.154,4.967-10.311,9.934-15.466,14.896c-3.944-3.788-7.881-7.58-11.825-11.365
			c-6.54-6.282-15.29-14.778-21.835-21.068c7.554-5.045,16.211-11.196,23.768-16.248c1.967-1.316,2.105-3.495,0.715-5.278
			c-5.619-7.183-9.031-12.164-14.646-19.345c-0.846-1.08-2.917-1.315-4.022-0.546C47.436,8.192,33.208,15.38,24.292,24.3
			c-8.91,8.906-16.099,23.134-23.84,34.331c-0.767,1.106-0.539,3.175,0.545,4.022c7.183,5.617,12.161,9.026,19.344,14.643
			c1.783,1.391,3.967,1.253,5.281-0.715c5.047-7.551,11.2-16.209,16.248-23.768c6.285,6.545,14.781,15.295,21.065,21.835
			c3.714,3.866,7.425,7.729,11.142,11.586c-6.209,5.983-12.422,11.961-18.629,17.937c-10.75,10.355-21.494,20.702-32.243,31.051
			c-0.503,0.483-1.003,0.97-1.507,1.449c-1.383,1.338-1.396,3.592-0.125,4.858c2.027,2.027,2.951,2.948,4.977,4.976
			c2.029,2.03,2.951,2.949,4.979,4.977c1.27,1.276,3.527,1.263,4.859-0.125c0.482-0.497,0.967-0.999,1.451-1.502
			c10.348-10.746,20.696-21.496,31.045-32.243c5.896-6.123,11.793-12.247,17.688-18.37c6.293,6.55,12.588,13.095,18.881,19.646
			c9.826,10.225,19.65,20.453,29.48,30.68c0.459,0.477,0.92,0.951,1.381,1.426c1.262,1.32,3.461,1.276,4.736,0
			c2.025-2.023,2.949-2.944,4.971-4.972c2.027-2.027,2.955-2.948,4.977-4.976c1.271-1.274,1.318-3.475,0-4.736
			c-0.475-0.464-0.955-0.918-1.436-1.379c-10.221-9.822-20.449-19.655-30.674-29.482c-6.631-6.371-13.26-12.74-19.891-19.113
			c4.885-5.076,9.77-10.15,14.656-15.22c4.9-5.094,11.076-11.457,16.641-17.207c1.682,1.677,3.363,3.359,5.043,5.041
			c3.434,3.433,8.15,4.421,12.625,6.114c7.605,2.868,15.213,5.736,22.818,8.604c1.158,0.438,2.055,0.072,2.596-0.633
			C174.086,72.492,174.455,71.596,174.018,70.439z"/>
	</g>
</g>
</svg>
