<?xml version="1.0" encoding="utf-8"?>
<!-- Generator: Adobe Illustrator 16.0.0, SVG Export Plug-In . SVG Version: 6.00 Build 0)  -->
<!DOCTYPE svg PUBLIC "-//W3C//DTD SVG 1.1//EN" "http://www.w3.org/Graphics/SVG/1.1/DTD/svg11.dtd">
<svg version="1.1" id="Layer_1" xmlns="http://www.w3.org/2000/svg" xmlns:xlink="http://www.w3.org/1999/xlink" x="0px" y="0px"
	 width="149.839px" height="149.835px" viewBox="0 0 149.839 149.835" enable-background="new 0 0 149.839 149.835"
	 xml:space="preserve">
<path fill-rule="evenodd" clip-rule="evenodd" fill="#F5F6F6" d="M18.771,74.499C18.629,38.48,46.728,8.159,82.605,5.462
	c0.447-0.034,0.916-0.1,1.348-0.011c1.508,0.313,3.004,0.687,4.506,1.038c-0.584,1.305-0.961,2.763-1.785,3.892
	c-6.465,8.832-10.961,18.51-13.203,29.254c-7.887,37.786,15.346,75.531,52.633,85.419c0.578,0.153,1.213,0.193,1.732,0.461
	c1.127,0.579,2.193,1.271,3.287,1.917c-0.764,1.019-1.34,2.284-2.318,3.018c-8.66,6.512-18.426,10.604-29.045,12.489
	c-39.896,7.084-77.666-22.148-80.967-62.596C18.634,78.407,18.771,76.448,18.771,74.499z"/>
</svg>
