<?xml version="1.0" encoding="utf-8"?>
<!-- Generator: Adobe Illustrator 16.0.0, SVG Export Plug-In . SVG Version: 6.00 Build 0)  -->
<!DOCTYPE svg PUBLIC "-//W3C//DTD SVG 1.1//EN" "http://www.w3.org/Graphics/SVG/1.1/DTD/svg11.dtd">
<svg version="1.1" id="Layer_1" xmlns="http://www.w3.org/2000/svg" xmlns:xlink="http://www.w3.org/1999/xlink" x="0px" y="0px"
	 width="171.469px" height="165.058px" viewBox="0 0 171.469 165.058" enable-background="new 0 0 171.469 165.058"
	 xml:space="preserve">
<g>
	<g>
		<path fill="#F5F6F6" d="M50.631,90.258l7.673,4.694c1.293,0,1.946-0.535,1.946-1.605c0-0.686-0.313-1.633-0.916-2.861
			L42.381,58.644L4.808,59.56c-1.679,0.082-2.517,0.959-2.517,2.637c0,0.379,0.532,0.914,1.601,1.603l7.791,4.694L3.436,81.317
			C1.147,84.994,0,88.013,0,90.376c0,2.141,0.758,4.547,2.291,7.215l25.541,44.554c-0.609-2.821-0.914-5.497-0.914-8.019
			c0-4.498,1.408-8.934,4.236-13.285L50.631,90.258L50.631,90.258z"/>
		<path fill="#F5F6F6" d="M60.479,64.258l21.074-32.642C73.683,13.674,65.324,4.694,56.467,4.694c-5.347,0-8.93,1.492-10.762,4.47
			L25.77,41.007L60.479,64.258L60.479,64.258z"/>
		<path fill="#F5F6F6" d="M43.297,152.679h40.662v-42.258H44.785c-4.808,6.869-7.828,11.533-9.048,13.971
			c-1.986,3.894-2.976,7.866-2.976,11.909C32.762,147.224,36.27,152.679,43.297,152.679L43.297,152.679z"/>
		<path fill="#F5F6F6" d="M127.029,56.469L145.125,26c0.607-1.065,0.913-2.177,0.913-3.32c0-1.376-0.456-2.059-1.369-2.059
			c0.143,0-0.46,0.227-1.835,0.683l-8.244,3.78l-7.561-15.007C123.664,3.361,116.947,0,106.868,0H59.796
			c5.724,1.755,9.614,3.474,11.679,5.152c4.813,3.823,9.736,10.998,14.772,21.537l9.399,19.701l-6.994,3.322
			c-0.684,0.313-1.029,0.916-1.029,1.833c0,1.145,0.725,1.8,2.178,1.948L127.029,56.469L127.029,56.469z"/>
		<path fill="#F5F6F6" d="M145.122,146.385l26.347-47.878c-3.896,4.434-8.133,7.41-12.711,8.935
			c-3.665,1.225-8.908,1.833-15.699,1.833h-29.319v-6.073c0-2.365-0.573-3.551-1.722-3.551c-0.838,0-1.453,0.312-1.832,0.918
			l-18.549,32.184l19.238,29.552c1.453,2.219,2.71,3.092,3.783,2.637c1.064-0.307,1.604-0.878,1.604-1.717v-10.082h16.263
			C138.48,153.142,142.68,150.888,145.122,146.385L145.122,146.385z"/>
		<path fill="#F5F6F6" d="M133.671,103.202h17.526c4.195,0,8.549-1.832,13.057-5.494c4.809-3.819,7.215-7.868,7.215-12.147
			c0-1.978-0.652-3.925-1.947-5.837l-20.846-31.846L112.818,68.73L133.671,103.202L133.671,103.202z"/>
	</g>
</g>
</svg>
