<?xml version="1.0" encoding="utf-8"?>
<!-- Generator: Adobe Illustrator 16.0.0, SVG Export Plug-In . SVG Version: 6.00 Build 0)  -->
<!DOCTYPE svg PUBLIC "-//W3C//DTD SVG 1.1//EN" "http://www.w3.org/Graphics/SVG/1.1/DTD/svg11.dtd">
<svg version="1.1" id="Layer_1" xmlns="http://www.w3.org/2000/svg" xmlns:xlink="http://www.w3.org/1999/xlink" x="0px" y="0px"
	 width="149.839px" height="149.835px" viewBox="0 0 149.839 149.835" enable-background="new 0 0 149.839 149.835"
	 xml:space="preserve">
<path fill="#F5F6F6" d="M74.922,43.477c-17.364,0-31.439,14.082-31.439,31.446c0,17.36,14.075,31.433,31.439,31.433
	c17.358,0,31.435-14.073,31.435-31.433C106.357,57.558,92.281,43.477,74.922,43.477z"/>
<path fill="#F5F6F6" d="M85.101,13.254c0-5.604-4.569-10.169-10.179-10.169c-5.604,0-10.172,4.565-10.172,10.169v8.113
	c0,5.612,4.568,10.183,10.172,10.183c5.609,0,10.177-4.571,10.177-10.183v-8.113H85.101z"/>
<path fill="#F5F6F6" d="M85.101,128.459c0-5.599-4.569-10.165-10.178-10.165c-5.604,0-10.172,4.566-10.172,10.165v8.127
	c0,5.604,4.568,10.164,10.172,10.164c5.608,0,10.178-4.56,10.178-10.164V128.459z"/>
<path fill="#F5F6F6" d="M44.246,29.866l-5.75-5.736c-1.905-1.923-4.471-2.981-7.182-2.981c-2.716,0-5.271,1.059-7.193,2.981
	c-1.917,1.92-2.975,4.473-2.975,7.19c0,2.71,1.058,5.265,2.975,7.18l5.744,5.753c1.917,1.917,4.477,2.975,7.187,2.975
	c2.717,0,5.277-1.059,7.194-2.975C48.208,40.294,48.208,33.841,44.246,29.866z"/>
<path fill="#F5F6F6" d="M125.712,111.336l-5.737-5.74c-1.928-1.925-4.487-2.979-7.193-2.979c-2.716,0-5.277,1.055-7.191,2.979
	c-3.974,3.964-3.957,10.413,0,14.377l5.753,5.74c1.916,1.923,4.465,2.979,7.193,2.979c2.704,0,5.243-1.062,7.17-2.98
	c1.928-1.914,2.979-4.463,2.995-7.173C128.702,115.813,127.645,113.261,125.712,111.336z"/>
<path fill="#F5F6F6" d="M21.375,64.749h-8.128c-5.602,0-10.162,4.566-10.162,10.174c0,5.598,4.56,10.167,10.162,10.167h8.128
	c5.604,0,10.172-4.568,10.172-10.167C31.546,69.315,26.983,64.749,21.375,64.749z"/>
<path fill="#F5F6F6" d="M136.587,64.749h-8.122c-5.608,0-10.161,4.564-10.161,10.167c0,5.606,4.553,10.164,10.161,10.164h8.122
	c5.605,0,10.167-4.558,10.167-10.164C146.754,69.312,142.193,64.749,136.587,64.749z"/>
<path fill="#F5F6F6" d="M47.225,112.767c0-2.714-1.058-5.266-2.979-7.171c-1.917-1.925-4.477-2.979-7.188-2.979
	c-2.727,0-5.276,1.055-7.193,2.979l-5.754,5.74c-1.917,1.919-2.975,4.469-2.975,7.188c0,2.71,1.058,5.262,2.984,7.188
	c1.933,1.919,4.477,2.98,7.183,2.98c2.705,0,5.266-1.057,7.192-2.979l5.749-5.754C46.163,118.042,47.235,115.492,47.225,112.767z"/>
<path fill="#F5F6F6" d="M125.712,24.129c-1.916-1.929-4.472-2.989-7.198-2.989c-2.722,0-5.267,1.059-7.171,2.976l-5.753,5.742
	c-3.957,3.963-3.957,10.412-0.011,14.388c1.915,1.916,4.476,2.976,7.19,2.976c2.729,0,5.277-1.06,7.193-2.976l5.749-5.747
	C129.685,34.531,129.673,28.082,125.712,24.129z"/>
</svg>
