<?xml version="1.0" encoding="utf-8"?>
<!-- Generator: Adobe Illustrator 16.0.0, SVG Export Plug-In . SVG Version: 6.00 Build 0)  -->
<!DOCTYPE svg PUBLIC "-//W3C//DTD SVG 1.1//EN" "http://www.w3.org/Graphics/SVG/1.1/DTD/svg11.dtd">
<svg version="1.1" id="Layer_1" xmlns="http://www.w3.org/2000/svg" xmlns:xlink="http://www.w3.org/1999/xlink" x="0px" y="0px"
	 width="167.087px" height="143.756px" viewBox="0 0 167.087 143.756" enable-background="new 0 0 167.087 143.756"
	 xml:space="preserve">
<path fill="#F5F6F6" d="M84.584,88.764c3.43,0,6.211,2.778,6.211,6.211c0,3.431-2.781,6.212-6.211,6.212
	c-3.433,0-6.218-2.781-6.218-6.212C78.366,91.542,81.151,88.764,84.584,88.764z"/>
<path fill="#F5F6F6" d="M75.625,71.871l2.984,9.776c1.823-0.823,3.839-1.292,5.975-1.292c0.593,0,1.177,0.044,1.748,0.109
	c0.041-14.296,0.175-64.887-0.006-77.954C86.12-12.458,64.691,43.783,64.919,58.41C64.994,62.71,75.625,71.871,75.625,71.871z"/>
<path fill="#F5F6F6" d="M126.685,96.492c-3.758-2.092-17.005,2.537-17.005,2.537l-10.563-2.443
	c-0.293,2.646-1.298,5.068-2.802,7.098c11.571,6.721,56.497,32.812,68.077,39.301C177.458,150.282,139.467,103.603,126.685,96.492z"
	/>
<path fill="#F5F6F6" d="M70.528,98.968c-10.447,5.993-57.084,32.752-68.718,39.676c-12.86,7.66,46.568-1.904,59.12-9.414
	c3.689-2.21,6.299-16,6.299-16l7.216-7.727C72.61,103.728,71.24,101.486,70.528,98.968z"/>
</svg>
